<?xml version="1.0" standalone="no"?>
<!DOCTYPE svg PUBLIC "-//W3C//DTD SVG 20010904//EN"
 "http://www.w3.org/TR/2001/REC-SVG-20010904/DTD/svg10.dtd">
<svg version="1.0" xmlns="http://www.w3.org/2000/svg"
 width="320.000000pt" height="320.000000pt" viewBox="0 0 320.000000 320.000000"
 preserveAspectRatio="xMidYMid meet">
<metadata>
Created by potrace 1.11, written by Peter Selinger 2001-2013
</metadata>
<g transform="translate(0.000000,320.000000) scale(0.100000,-0.100000)"
fill="#000000" stroke="none">
<path d="M2545 2836 c-544 -114 -1045 -325 -1405 -592 -134 -99 -346 -312
-432 -434 -161 -228 -259 -488 -288 -770 -15 -151 -9 -405 11 -398 5 2 570
510 846 762 24 21 43 37 43 34 0 -2 -166 -226 -369 -498 -226 -304 -364 -497
-357 -501 26 -15 164 -29 289 -29 372 0 678 132 963 415 191 189 315 370 458
667 120 248 214 518 296 853 41 168 100 460 100 495 0 26 -14 25 -155 -4z"/>
</g>
</svg>
