<?xml version="1.0" standalone="no"?>
<!DOCTYPE svg PUBLIC "-//W3C//DTD SVG 20010904//EN"
 "http://www.w3.org/TR/2001/REC-SVG-20010904/DTD/svg10.dtd">
<svg version="1.0" xmlns="http://www.w3.org/2000/svg"
 width="320.000000pt" height="320.000000pt" viewBox="0 0 320.000000 320.000000"
 preserveAspectRatio="xMidYMid meet">
<metadata>
Created by potrace 1.11, written by Peter Selinger 2001-2013
</metadata>
<g transform="translate(0.000000,320.000000) scale(0.100000,-0.100000)"
fill="#000000" stroke="none">
<path d="M1930 2982 c-36 -11 -105 -31 -155 -46 -124 -39 -232 -39 -376 -4
-147 37 -201 43 -253 28 -48 -13 -98 -56 -123 -104 -22 -42 -28 -134 -13 -213
12 -63 17 -71 64 -113 160 -141 296 -323 373 -499 l33 -76 67 3 c39 2 97 -3
136 -12 38 -9 70 -16 72 -16 2 0 15 21 30 46 37 63 163 193 260 269 101 79
273 191 353 230 60 29 61 31 61 71 2 119 -50 246 -133 330 -109 108 -252 147
-396 106z"/>
<path d="M660 2561 c-86 -20 -145 -63 -181 -134 -22 -42 -38 -148 -39 -253 0
-164 -44 -271 -146 -360 -100 -88 -113 -128 -70 -219 26 -58 115 -143 199
-193 l56 -34 59 36 c129 78 338 142 503 152 l97 7 12 45 c24 97 95 202 176
264 30 22 54 46 54 53 0 24 -99 212 -150 284 -110 154 -262 291 -370 332 -56
21 -152 31 -200 20z"/>
<path d="M2542 2431 c-117 -43 -317 -167 -457 -281 -83 -68 -194 -186 -220
-234 l-18 -33 67 -69 c66 -69 106 -144 106 -198 0 -21 6 -24 60 -30 164 -19
362 -101 490 -202 79 -64 170 -174 215 -262 l27 -52 49 26 c124 68 159 203
121 474 -11 80 -23 233 -27 340 -4 107 -11 218 -17 245 -23 112 -103 231 -182
272 -49 25 -152 27 -214 4z"/>
<path d="M1991 1433 c-30 -81 -105 -171 -191 -228 -65 -43 -160 -85 -194 -85
-20 0 -25 -20 -38 -138 -14 -124 0 -303 32 -426 55 -209 179 -339 337 -353
115 -10 187 42 314 228 106 155 191 215 335 239 120 19 162 58 171 158 18 192
-168 457 -402 575 -73 36 -210 77 -281 84 l-61 6 -22 -60z"/>
<path d="M929 1444 c-87 -15 -197 -53 -284 -97 -196 -98 -353 -268 -371 -400
-9 -62 0 -90 41 -136 45 -49 122 -82 287 -120 70 -17 153 -44 185 -60 68 -34
130 -96 160 -161 11 -25 35 -75 52 -112 21 -44 45 -77 68 -95 32 -25 45 -28
112 -28 61 0 85 5 125 25 55 28 126 102 174 182 l32 55 -14 64 c-36 155 -43
338 -20 500 l6 45 -58 13 c-162 36 -262 141 -289 304 l-6 37 -62 -1 c-34 0
-96 -7 -138 -15z"/>
</g>
</svg>
