<svg width="24" height="24" viewBox="0 0 16 16" fill="none" xmlns="http://www.w3.org/2000/svg">
<path d="M8.9134 1.39597C7.31824 1.17654 5.69756 1.54167 4.35062 2.42394C3.00367 3.30621 2.02143 4.64604 1.58526 6.19601C1.1491 7.74599 1.28847 9.40144 1.97764 10.8567C2.66681 12.3119 3.85923 13.4686 5.33473 14.1133C5.29483 13.6012 5.33145 13.086 5.4434 12.5846C5.56673 12.0253 6.3074 8.94264 6.3074 8.94264C6.15991 8.61203 6.0862 8.25327 6.0914 7.8913C6.0914 6.9013 6.66273 6.16264 7.3734 6.16264C7.50107 6.16078 7.62764 6.18643 7.74451 6.23786C7.86138 6.28928 7.96581 6.36527 8.0507 6.46065C8.13558 6.55604 8.19893 6.66858 8.23644 6.79063C8.27394 6.91268 8.28473 7.04138 8.26806 7.16797C8.26806 7.76797 7.88273 8.67597 7.6814 9.52797C7.64161 9.68422 7.63908 9.84764 7.67403 10.005C7.70897 10.1625 7.7804 10.3095 7.88257 10.4342C7.98474 10.5589 8.11478 10.6579 8.26222 10.7232C8.40966 10.7885 8.57037 10.8182 8.7314 10.81C9.99673 10.81 10.8447 9.1893 10.8447 7.27597C10.8447 5.8093 9.8734 4.71064 8.08273 4.71064C7.65431 4.69399 7.22698 4.76459 6.82668 4.91814C6.42639 5.07169 6.06147 5.305 5.7541 5.6039C5.44672 5.90279 5.2033 6.26104 5.03861 6.65689C4.87392 7.05273 4.7914 7.47792 4.79606 7.90664C4.77698 8.38219 4.9304 8.84861 5.22806 9.21997C5.28368 9.26149 5.3243 9.31997 5.34378 9.38659C5.36326 9.45321 5.36055 9.52436 5.33606 9.5893C5.3054 9.71197 5.22806 10.0046 5.1974 10.112C5.19102 10.1484 5.17618 10.1828 5.15408 10.2124C5.13198 10.242 5.10323 10.266 5.07015 10.2825C5.03707 10.299 5.00059 10.3074 4.96363 10.3072C4.92668 10.307 4.89029 10.2981 4.8574 10.2813C3.93473 9.91197 3.50006 8.89664 3.50006 7.7373C3.50006 5.8393 5.0894 3.5673 8.2694 3.5673C10.8001 3.5673 12.4827 5.41864 12.4827 7.39864C12.4827 10.0046 11.0314 11.964 8.88673 11.964C8.56619 11.9742 8.24824 11.9035 7.96228 11.7583C7.67633 11.6131 7.4316 11.3981 7.25073 11.1333C7.25073 11.1333 6.8654 12.6773 6.7894 12.9693C6.63426 13.4738 6.40533 13.9525 6.11006 14.39C6.7254 14.5766 7.36473 14.67 8.0074 14.6673C8.88312 14.668 9.75037 14.496 10.5595 14.161C11.3686 13.8261 12.1038 13.3348 12.7228 12.7154C13.3418 12.0959 13.8325 11.3605 14.1669 10.5511C14.5013 9.74173 14.6727 8.87436 14.6714 7.99864C14.6706 6.38864 14.0872 4.8333 13.0291 3.61982C11.971 2.40635 10.5096 1.61668 8.91473 1.39664L8.9134 1.39597Z" fill="black"></path>
</svg>
