<svg width="24" height="24" viewBox="0 0 24 24" fill="none" xmlns="http://www.w3.org/2000/svg">
<path d="M21.2547 3.95726C20.1159 2.69513 18.5532 2 16.8543 2C15.5844 2 14.4214 2.41025 13.3975 3.21926C12.8809 3.62762 12.4127 4.12723 12 4.71036C11.5874 4.1274 11.1191 3.62762 10.6023 3.21926C9.57864 2.41025 8.41563 2 7.14571 2C5.44676 2 3.88394 2.69513 2.7451 3.95726C1.61986 5.20464 1 6.90876 1 8.75591C1 10.6571 1.69337 12.3974 3.18201 14.2329C4.5137 15.8747 6.42766 17.5415 8.64407 19.4714C9.40089 20.1306 10.2588 20.8776 11.1495 21.6734C11.3848 21.8841 11.6868 22 12 22C12.313 22 12.6152 21.8841 12.8501 21.6738C13.7409 20.8778 14.5993 20.1304 15.3564 19.4709C17.5725 17.5413 19.4865 15.8747 20.8182 14.2327C22.3068 12.3974 23 10.6571 23 8.75574C23 6.90876 22.3801 5.20464 21.2547 3.95726Z" fill="white"></path>
</svg>
