<svg width="16" height="16" viewBox="0 0 16 16" fill="none" xmlns="http://www.w3.org/2000/svg">
<path class="icon-border" d="M13.7398 8.2038L13.6437 8.31583L8.00001 13.9596L2.35629 8.31583L2.26019 8.2038C1.63068 7.46989 1.30176 6.5252 1.33936 5.55903C1.37695 4.59285 1.77828 3.67657 2.46292 2.9938C3.14755 2.31103 4.06492 1.91221 5.03119 1.87725C5.99747 1.84229 6.94126 2.17378 7.67345 2.80529L8.00001 3.08695L8.32657 2.80529C9.05876 2.17378 10.0026 1.84229 10.9688 1.87725C11.9351 1.91221 12.8525 2.31103 13.5371 2.9938C14.2217 3.67658 14.6231 4.59285 14.6607 5.55903C14.6983 6.5252 14.3693 7.46989 13.7398 8.2038Z" stroke="black"/>
<path class="icon-bg" d="M14.1188 8.52935L14.1275 8.53868L7.99949 14.6667L1.87149 8.53868L1.88016 8.52935C1.16853 7.69971 0.796719 6.6318 0.839217 5.5396C0.881716 4.44741 1.33539 3.41162 2.10933 2.63979C2.88326 1.86796 3.92029 1.41711 5.0126 1.37759C6.10491 1.33807 7.1718 1.7128 7.99949 2.42668C8.82718 1.7128 9.89408 1.33807 10.9864 1.37759C12.0787 1.41711 13.1157 1.86796 13.8897 2.63979C14.6636 3.41162 15.1173 4.44741 15.1598 5.5396C15.2023 6.6318 14.8304 7.69971 14.1188 8.52935V8.52935Z" fill="black"/>
</svg>
