<svg width="24" height="24" viewBox="0 0 24 24" fill="none" xmlns="http://www.w3.org/2000/svg"><path d="M20.8131 12.48L12.0002 21.2929L3.35109 12.6438L3.20073 12.4685C2.2154 11.3198 1.70058 9.84112 1.75942 8.32885C1.81827 6.81658 2.44643 5.3824 3.51804 4.31372C4.58964 3.24503 6.02552 2.62078 7.53795 2.56606C9.05038 2.51134 10.5276 3.03019 11.6736 4.01865L12.0002 4.30031L12.3268 4.01865C13.4728 3.03019 14.95 2.51134 16.4625 2.56606C17.9749 2.62078 19.4108 3.24503 20.4824 4.31372C21.554 5.3824 22.1822 6.81658 22.241 8.32885C22.2998 9.84112 21.785 11.3198 20.7997 12.4685L20.8131 12.48ZM21.1722 12.788L21.1792 12.794L21.1787 12.7945L21.1722 12.788Z" stroke="black"></path></svg>
