<svg width="16" height="16" viewBox="0 0 16 16" xmlns="http://www.w3.org/2000/svg"><path d="M13.3333 14.6666H2.66667C2.48986 14.6666 2.32029 14.5963 2.19526 14.4713C2.07024 14.3463 2 14.1767 2 13.9999V1.99992C2 1.82311 2.07024 1.65354 2.19526 1.52851C2.32029 1.40349 2.48986 1.33325 2.66667 1.33325H13.3333C13.5101 1.33325 13.6797 1.40349 13.8047 1.52851C13.9298 1.65354 14 1.82311 14 1.99992V13.9999C14 14.1767 13.9298 14.3463 13.8047 14.4713C13.6797 14.5963 13.5101 14.6666 13.3333 14.6666ZM6 3.99992H4.66667V5.33325C4.66667 6.21731 5.01786 7.06515 5.64298 7.69027C6.2681 8.3154 7.11595 8.66659 8 8.66659C8.88406 8.66659 9.7319 8.3154 10.357 7.69027C10.9821 7.06515 11.3333 6.21731 11.3333 5.33325V3.99992H10V5.33325C10 5.86369 9.78929 6.37239 9.41421 6.74747C9.03914 7.12254 8.53043 7.33325 8 7.33325C7.46957 7.33325 6.96086 7.12254 6.58579 6.74747C6.21071 6.37239 6 5.86369 6 5.33325V3.99992Z"></path></svg>
