<svg width="24" height="24" fill="none" xmlns="http://www.w3.org/2000/svg"><path d="M10.138 0C4.548 0 0 4.548 0 10.138s4.548 10.138 10.138 10.138 10.138-4.548 10.138-10.138S15.728 0 10.138 0zm0 18.503c-4.612 0-8.365-3.753-8.365-8.365s3.753-8.365 8.365-8.365 8.365 3.753 8.365 8.365-3.753 8.365-8.365 8.365z" fill="#fff"></path><path d="M23.74 22.486l-6.443-6.443a.886.886 0 10-1.254 1.254l6.443 6.443a.884.884 0 001.254 0 .886.886 0 000-1.254zM11.339 9.608H15v1.486h-3.661V15H9.66v-3.906H6V9.608h3.661V6h1.678v3.608z" fill="#fff"></path></svg>
