<svg width="16" height="16" xmlns="http://www.w3.org/2000/svg"><path d="M4.418 3.641a.59.59 0 00-.836 0 4.04 4.04 0 00-1.155 3.275.591.591 0 101.176-.118c-.087-.87.21-1.716.815-2.32a.59.59 0 000-.837z"></path><path d="M6.759 0A6.766 6.766 0 000 6.759a6.766 6.766 0 006.759 6.758 6.766 6.766 0 006.758-6.758A6.766 6.766 0 006.76 0zm0 12.335a5.583 5.583 0 01-5.577-5.576A5.583 5.583 0 016.76 1.182a5.583 5.583 0 015.576 5.577 5.583 5.583 0 01-5.576 5.576z"></path><path d="M15.827 14.99l-4.296-4.295a.59.59 0 10-.836.836l4.296 4.296a.589.589 0 00.836 0 .59.59 0 000-.836z"></path></svg>
