<svg width="64" height="64" viewBox="0 0 64 64" fill="none" xmlns="http://www.w3.org/2000/svg">
<path d="M49.9049 51.3943C49.3819 51.0315 48.6638 51.1619 48.3014 51.685C47.9502 52.192 47.5522 52.685 47.1179 53.1504C46.8269 53.4626 46.4266 53.839 45.991 54.2095C45.5063 54.6221 45.4478 55.3493 45.8602 55.8341C46.0881 56.1019 46.4123 56.2395 46.7384 56.2395C47.0024 56.2395 47.2678 56.1493 47.4848 55.9647C47.993 55.5321 48.4492 55.1025 48.8034 54.7221C49.313 54.1761 49.7815 53.5959 50.1959 52.9976C50.5583 52.4746 50.4281 51.7567 49.9049 51.3943Z" fill="black"/>
<path d="M44.8844 56.5612C44.6141 55.985 43.9282 55.737 43.3518 56.0073L43.3157 56.0235C42.7335 56.2804 42.4698 56.9607 42.7269 57.543C42.917 57.974 43.339 58.2304 43.7816 58.2304C43.9371 58.2304 44.0951 58.1987 44.2463 58.1319C44.2744 58.1196 44.3023 58.1069 44.3303 58.0939C44.9064 57.8236 45.1545 57.1376 44.8844 56.5612Z" fill="black"/>
<path d="M58.5574 10H6.44262C4.54425 10 3 11.5445 3 13.4426V45.7372C3 47.6352 4.54425 49.1796 6.44262 49.1796H30.7093C31.738 53.532 34.0642 56.6145 36.0973 58.5894C39.0648 61.4723 42.4665 63.0076 43.7813 63.0076C45.0958 63.0076 48.4976 61.4724 51.4652 58.5895C53.4983 56.6145 55.8246 53.532 56.8532 49.1797H58.5574C60.4556 49.1797 62 47.6354 62 45.7373V13.4426C62 11.5445 60.4556 10 58.5574 10ZM55.0858 44.4571C55.086 50.5285 52.2833 54.5559 49.9321 56.8653C47.1431 59.6047 44.2822 60.6703 43.7813 60.7027C43.2802 60.6703 40.4192 59.6048 37.6302 56.8653C35.2792 54.5559 32.4766 50.5285 32.4766 44.4571V38.7823C36.4441 37.6349 40.1564 36.0646 43.7816 34.001C47.3251 36.0121 51.2038 37.6523 55.0858 38.7816V44.4571ZM59.6953 45.7372C59.6953 46.3646 59.1847 46.8749 58.5574 46.8749H57.254C57.3422 46.1027 57.3906 45.2975 57.3906 44.4571V37.9086C57.3906 37.3884 57.0422 36.9329 56.5403 36.7965C52.3558 35.6602 48.1451 33.8895 44.3633 31.676C44.0038 31.4656 43.5587 31.4658 43.199 31.6762C39.3101 33.9526 35.327 35.6273 31.0222 36.7965C30.5203 36.933 30.1719 37.3885 30.1719 37.9086V44.4571C30.1719 45.2975 30.2202 46.1027 30.3085 46.8749H6.44262C5.81517 46.8749 5.30468 46.3644 5.30468 45.7372V26.1325H59.6953V45.7372ZM59.6953 23.828H5.30468V19.2188H59.6953V23.828ZM59.6953 16.914H5.30468V13.4426C5.30468 12.8152 5.81517 12.3047 6.44262 12.3047H58.5574C59.1847 12.3047 59.6953 12.8152 59.6953 13.4426V16.914Z" fill="black"/>
<path d="M16.8276 34.1993C16.1329 34.1993 15.4469 34.3398 14.812 34.6076C14.1917 34.3448 13.5099 34.1993 12.795 34.1993C9.93572 34.1993 7.60938 36.5255 7.60938 39.3847C7.60938 42.2438 9.93561 44.5702 12.795 44.5702C13.5099 44.5702 14.1917 44.4248 14.8119 44.1619C15.4469 44.4297 16.1329 44.5702 16.8276 44.5702C19.6871 44.5702 22.0134 42.2438 22.0134 39.3847C22.0134 36.5255 19.6871 34.1993 16.8276 34.1993ZM12.795 42.2655C11.2064 42.2655 9.91406 40.9733 9.91406 39.3847C9.91406 37.7961 11.2064 36.504 12.795 36.504C14.3834 36.504 15.6758 37.7961 15.6758 39.3847C15.6758 40.9732 14.3834 42.2655 12.795 42.2655ZM17.1133 42.2514C17.6607 41.4297 17.9804 40.4439 17.9804 39.3848C17.9804 38.3257 17.6607 37.3401 17.1134 36.5183C18.5683 36.6621 19.7086 37.8928 19.7086 39.3848C19.7086 40.8767 18.5683 42.1075 17.1133 42.2514Z" fill="black"/>
<path d="M14.689 29.0137H8.76172C8.12528 29.0137 7.60938 29.5296 7.60938 30.166C7.60938 30.8023 8.12528 31.3184 8.76172 31.3184H14.689C15.3255 31.3184 15.8414 30.8022 15.8414 30.166C15.8414 29.5296 15.3255 29.0137 14.689 29.0137Z" fill="black"/>
<path d="M18.0951 29.0137H18.0405C17.4041 29.0137 16.8882 29.5296 16.8882 30.166C16.8882 30.8023 17.4041 31.3184 18.0405 31.3184H18.0951C18.7315 31.3184 19.2475 30.8022 19.2475 30.166C19.2475 29.5296 18.7315 29.0137 18.0951 29.0137Z" fill="black"/>
<path d="M50.1066 41.8074C49.6568 41.3576 48.9273 41.3574 48.477 41.8073L42.3147 47.9692L39.0855 44.7398C38.6353 44.2901 37.9057 44.2899 37.4557 44.7398C37.0057 45.1899 37.0056 45.9195 37.4557 46.3695L41.4998 50.4138C41.7249 50.6388 42.0198 50.7514 42.3147 50.7514C42.6095 50.7514 42.9045 50.6388 43.1294 50.4138L50.1065 43.4371C50.5566 42.9873 50.5566 42.2576 50.1066 41.8074Z" fill="black"/>
</svg>
