<svg width="64" height="64" viewBox="0 0 64 64" fill="none" xmlns="http://www.w3.org/2000/svg">
<path d="M39.5973 25.4127L39.6874 25.3693C39.929 25.8706 39.7193 26.4733 39.2187 26.7154L39.1752 26.6254L39.2187 26.7154L33.0064 29.7206V60.4853L59.0873 47.8694V17.1045L50.9282 21.0513V31.947C50.9282 32.3339 50.7073 32.6867 50.3595 32.8549L43.5783 36.1352C43.4396 36.2023 43.29 36.2355 43.1408 36.2355C42.9544 36.2355 42.7685 36.1837 42.6056 36.0813L42.6588 35.9966L42.6055 36.0812C42.3122 35.8966 42.1343 35.5742 42.1343 35.2273V24.3818L14.995 11.2536L6.22079 15.498L25.657 24.9L25.6135 24.99L25.657 24.9C26.1576 25.1422 26.3672 25.7449 26.1257 26.2462C26.1257 26.2462 26.1257 26.2462 26.1257 26.2462L26.0356 26.2028L39.5973 25.4127ZM39.5973 25.4127L39.6874 25.3692C39.4458 24.868 38.8443 24.6573 38.3435 24.8997L32 27.9683L29.5304 26.7736C29.0296 26.5311 28.428 26.7418 28.1864 27.2432C27.9449 27.7444 28.1546 28.3472 28.6551 28.5894L28.6986 28.4993M39.5973 25.4127L28.6986 28.4993M28.6986 28.4993L28.6551 28.5894L30.9936 29.7206V60.4853L4.91274 47.8691V17.1044L24.7818 26.7158C24.7818 26.7158 24.7819 26.7158 24.7819 26.7158L28.6986 28.4993ZM60.5313 14.5901L60.5313 14.5901L32.4376 1.00025L32.4376 1.00024C32.1611 0.866591 31.839 0.866581 31.5625 1.00025L31.5625 1.00025L3.46874 14.5901C3.46874 14.5901 3.46874 14.5901 3.46873 14.5901C3.12088 14.7583 2.9 15.1112 2.9 15.498V48.5019C2.9 48.8887 3.12088 49.2416 3.46874 49.4098L31.5624 62.9997L31.6059 62.9097L31.5624 62.9997C31.7006 63.0665 31.8503 63.1 32 63.1C32.1497 63.1 32.2993 63.0665 32.4376 62.9997L32.4376 62.9997L60.5313 49.4098C60.8791 49.2416 61.1 48.8887 61.1 48.5019V15.4981C61.1 15.1111 60.879 14.7585 60.5313 14.5901ZM50.3595 18.9582L24.7134 6.55257L32 3.02782L57.7792 15.498L50.4798 19.029C50.4426 19.0033 50.4027 18.9791 50.3595 18.9582ZM43.0887 22.6045L17.3577 10.1575L22.4369 7.69057L48.1782 20.1424L43.0887 22.6045ZM48.9155 22.0248V31.314L44.147 33.6208V24.3315L48.9155 22.0248Z" fill="black" stroke="black" stroke-width="0.2"/>
<path d="M11.6156 44.8099L7.3512 42.7513C6.8847 42.5259 6.32445 42.7217 6.09933 43.1879C5.8742 43.6542 6.0697 44.2147 6.53595 44.4398L10.8003 46.4984C10.9317 46.5619 11.0706 46.5919 11.2072 46.5919C11.5557 46.5919 11.8905 46.3967 12.0521 46.0618C12.2773 45.5954 12.0818 45.0352 11.6156 44.8099Z" fill="black"/>
<path d="M15.5401 42.2553L7.35698 38.3048C6.89061 38.0796 6.33023 38.2751 6.10511 38.7415C5.88011 39.2078 6.07561 39.7683 6.54186 39.9934L14.725 43.9439C14.8564 44.0073 14.9952 44.0374 15.1319 44.0374C15.4804 44.0374 15.8151 43.8422 15.9767 43.5073C16.2019 43.0408 16.0064 42.4803 15.5401 42.2553Z" fill="black"/>
</svg>
