<svg width="64" height="64" viewBox="0 0 64 64" fill="none" xmlns="http://www.w3.org/2000/svg">
<g clip-path="url(#clip0)">
<path d="M59.75 13.3091H57.2476L57.25 8.83545C57.2515 5.83203 54.8096 3.38721 51.8057 3.38574L32.8135 3.375C32.8125 3.375 32.812 3.375 32.811 3.375C31.73 3.375 30.7134 3.7959 29.9487 4.56055L1.59521 32.9141C0.566406 33.9429 0 35.3105 0 36.7656C0 38.2207 0.566406 39.5884 1.59521 40.6172L19.9956 59.0176C21.0576 60.0796 22.4526 60.6104 23.8472 60.6104C25.2422 60.6104 26.6372 60.0796 27.6992 59.0176L45.5508 41.166C46.0391 40.6777 46.0391 39.8862 45.5508 39.3984C45.0625 38.9102 44.271 38.9102 43.7827 39.3984L25.9312 57.25C24.7822 58.3989 22.9126 58.3989 21.7637 57.25L3.36328 38.8496C2.80664 38.293 2.5 37.5527 2.5 36.7656C2.5 35.9785 2.80664 35.2383 3.36328 34.6816L31.7163 6.32861C32.0088 6.03613 32.3975 5.875 32.811 5.875H32.812L51.8042 5.88574C53.4292 5.88623 54.751 7.20947 54.75 8.83447L54.7441 19.3091H49.1138C48.6289 19.3091 48.1899 19.1108 47.8726 18.7915C48.3955 18.5674 48.8857 18.2437 49.312 17.8174C51.1084 16.0205 51.1084 13.0977 49.312 11.3013C47.5151 9.50439 44.5923 9.50439 42.7954 11.3013C40.999 13.0977 40.999 16.0205 42.7954 17.8174C43.4614 18.4834 44.2827 18.9019 45.1436 19.0742C45.7554 20.6714 47.3037 21.8091 49.1138 21.8091H54.7427L54.7393 27.8013C54.7393 28.2148 54.5781 28.603 54.2856 28.895L50.854 32.3271C50.3657 32.8154 50.3657 33.6069 50.854 34.0952C51.3418 34.583 52.1333 34.583 52.6216 34.0952L56.0537 30.6631C56.8174 29.8989 57.2388 28.8833 57.2393 27.8027L57.2427 21.8091H59.75C62.0933 21.8091 64 19.9028 64 17.5591C64 15.2158 62.0933 13.3091 59.75 13.3091ZM44.5635 13.0688C44.9746 12.6577 45.5142 12.4526 46.0542 12.4526C46.5938 12.4526 47.1333 12.6582 47.5444 13.0688C47.6743 13.1992 47.7817 13.3433 47.8706 13.4951C46.4985 13.9155 45.4204 15.0137 45.0264 16.3975C44.8608 16.3052 44.7041 16.1904 44.5635 16.0498C43.7417 15.2275 43.7417 13.8906 44.5635 13.0688ZM59.75 19.3091H57.2441L57.2461 15.8091H59.75C60.7148 15.8091 61.5 16.5942 61.5 17.5591C61.5 18.5239 60.7148 19.3091 59.75 19.3091Z" fill="black"/>
<path d="M20.1769 34.9131C20.3307 35.4664 20.8332 35.8282 21.3801 35.8282C21.4914 35.8282 21.6042 35.8135 21.716 35.7823L34.548 32.2105C35.2131 32.0254 35.6022 31.336 35.4172 30.6709C35.2321 30.0064 34.5431 29.6172 33.8776 29.8023L21.0456 33.3736C20.381 33.5591 19.9919 34.2481 20.1769 34.9131Z" fill="black"/>
<path d="M25.8252 36.5625C25.1289 37.2588 24.7456 38.1841 24.7456 39.1689C24.7456 40.1533 25.1289 41.0786 25.8252 41.7749C26.5439 42.4932 27.4873 42.8525 28.4312 42.8525C29.375 42.8525 30.3188 42.4932 31.0376 41.7749C32.4746 40.3379 32.4746 37.9995 31.0376 36.5625C29.6006 35.1255 27.2622 35.1255 25.8252 36.5625ZM29.2695 40.0068C28.8071 40.4692 28.0552 40.4692 27.5928 40.0068C27.3687 39.7832 27.2456 39.4853 27.2456 39.1685C27.2456 38.852 27.3691 38.5542 27.5928 38.3301C27.8242 38.0991 28.1279 37.9834 28.4312 37.9834C28.7349 37.9834 29.0386 38.0991 29.2695 38.3301C29.7319 38.7925 29.7319 39.5449 29.2695 40.0068Z" fill="black"/>
<path d="M31.6569 29.1201C33.0939 27.6826 33.0939 25.3447 31.6569 23.9077C30.9606 23.2114 30.0348 22.8281 29.0504 22.8281C28.066 22.8281 27.1403 23.2114 26.4445 23.9077C25.0074 25.3447 25.0074 27.6826 26.4445 29.1201C27.1632 29.8384 28.1066 30.1978 29.0504 30.1978C29.9943 30.1978 30.9381 29.8384 31.6569 29.1201ZM28.212 25.6753C28.4362 25.4512 28.734 25.3281 29.0504 25.3281C29.3673 25.3281 29.6652 25.4512 29.8888 25.6753C30.3512 26.1377 30.3512 26.8896 29.8888 27.3521C29.4269 27.8145 28.6744 27.8145 28.212 27.3521C27.7501 26.8896 27.7501 26.1377 28.212 25.6753Z" fill="black"/>
<path d="M12.4326 32.3301C11.9443 31.8418 11.1528 31.8418 10.6646 32.3301L7.11279 35.8818C6.87842 36.1162 6.74658 36.4341 6.74658 36.7656C6.74658 37.0972 6.87842 37.415 7.11279 37.6494L22.9639 53.5005C23.2075 53.7441 23.5278 53.8662 23.8477 53.8662C24.1675 53.8662 24.4873 53.7441 24.7314 53.5005L48.4307 29.8008C48.9189 29.3125 48.9189 28.521 48.4307 28.0327L32.5801 12.1821C32.3457 11.9478 32.0278 11.8159 31.6963 11.8159C31.3647 11.8159 31.0469 11.9478 30.8125 12.1821L17.7358 25.2588C17.2476 25.7471 17.2476 26.5386 17.7358 27.0269C18.2236 27.5146 19.0151 27.5146 19.5034 27.0269L31.6963 14.834L45.7793 28.917L23.8477 50.8486L9.76465 36.7656L12.4326 34.0977C12.9204 33.6094 12.9209 32.8184 12.4326 32.3301Z" fill="black"/>
<path d="M48.2026 35.4966C47.8735 35.4966 47.5513 35.6304 47.3188 35.8628C47.0864 36.0952 46.9526 36.418 46.9526 36.7466C46.9526 37.0752 47.0864 37.3979 47.3188 37.6304C47.5513 37.8628 47.8735 37.9966 48.2026 37.9966C48.5312 37.9966 48.8535 37.8628 49.0864 37.6304C49.3188 37.3979 49.4526 37.0752 49.4526 36.7466C49.4526 36.418 49.3188 36.0952 49.0864 35.8628C48.8535 35.6304 48.5312 35.4966 48.2026 35.4966Z" fill="black"/>
<path d="M15.9673 30.5615C16.2012 30.3291 16.334 30.0078 16.334 29.6777C16.334 29.3491 16.2012 29.0278 15.9673 28.7939C15.7349 28.5615 15.4136 28.4277 15.084 28.4277C14.7549 28.4277 14.4326 28.5615 14.2002 28.7939C13.9673 29.0264 13.834 29.3491 13.834 29.6777C13.834 30.0078 13.9673 30.3291 14.2002 30.5615C14.4336 30.7954 14.7549 30.9277 15.084 30.9277C15.4136 30.9277 15.7349 30.7954 15.9673 30.5615Z" fill="black"/>
</g>
<defs>
<clipPath id="clip0">
<rect width="64" height="64" fill="white"/>
</clipPath>
</defs>
</svg>
