<svg width="64" height="64" viewBox="0 0 64 64" fill="none" xmlns="http://www.w3.org/2000/svg">
<g clip-path="url(#clip0)">
<path d="M26.3495 44.9501H21.2505C20.5602 44.9501 20.0005 44.3903 20.0005 43.7001C20.0005 43.0098 20.5601 42.4501 21.2505 42.4501H26.3495C27.0397 42.4501 27.5995 43.0098 27.5995 43.7001C27.5995 44.3903 27.0397 44.9501 26.3495 44.9501Z" fill="black"/>
<path d="M42.7494 44.9501H37.6504C36.9601 44.9501 36.4004 44.3903 36.4004 43.7001C36.4004 43.0098 36.96 42.4501 37.6504 42.4501H42.7494C43.4396 42.4501 43.9994 43.0098 43.9994 43.7001C43.9994 44.3903 43.4396 44.9501 42.7494 44.9501Z" fill="black"/>
<path d="M31.9775 44.9498C31.456 44.9498 30.9757 44.6128 30.8008 44.1208C30.6284 43.6357 30.7753 43.0801 31.169 42.7471C31.5799 42.3994 32.1793 42.3577 32.6367 42.6391C33.0743 42.9084 33.3029 43.4401 33.2027 43.9436C33.0875 44.5212 32.5667 44.9498 31.9775 44.9498Z" fill="black"/>
<path d="M39.255 49.8749H24.7446C24.0544 49.8749 23.4946 49.3151 23.4946 48.6249C23.4946 47.9346 24.0543 47.3749 24.7446 47.3749H39.255C39.9452 47.3749 40.505 47.9346 40.505 48.6249C40.505 49.3151 39.9454 49.8749 39.255 49.8749Z" fill="black"/>
<path d="M37.3152 29.5527C38.9948 28.075 40.0564 25.9107 40.0564 23.5029C40.0564 19.0604 36.4424 15.4463 32.0002 15.4463C27.5579 15.4463 23.9439 19.0604 23.9439 23.5029C23.9439 25.9107 25.0055 28.075 26.6852 29.5527C23.8472 30.6365 21.8262 33.3877 21.8262 36.602V38.7452C21.8262 39.4354 22.3858 39.9952 23.0762 39.9952H40.9243C41.6145 39.9952 42.1743 39.4354 42.1743 38.7452V36.602C42.1742 33.3877 40.1532 30.6365 37.3152 29.5527ZM32.0002 17.9463C35.064 17.9463 37.5565 20.4389 37.5565 23.5029C37.5565 26.5669 35.0639 29.0595 32.0002 29.0595C28.9364 29.0595 26.4438 26.5669 26.4438 23.5029C26.4438 20.4389 28.9363 17.9463 32.0002 17.9463ZM39.6743 37.495H24.326V36.6019C24.326 33.8215 26.588 31.5594 29.3683 31.5594H34.6319C37.4122 31.5594 39.6742 33.8215 39.6742 36.6019V37.495H39.6743Z" fill="black"/>
<path d="M15.0882 62.6645C14.1275 62.6645 13.1782 62.3622 12.3661 61.7721C11.0353 60.8052 10.3257 59.2495 10.468 57.6106L11.8848 41.2806L1.1416 28.9024C0.0633477 27.6602 -0.276902 25.9846 0.231473 24.4202C0.739598 22.8558 1.99972 21.7003 3.60197 21.3291L19.5682 17.6307L28.0188 3.58645C28.867 2.17707 30.3553 1.33557 32 1.33557C33.6447 1.33557 35.133 2.17695 35.9811 3.58645L44.4317 17.6307L60.398 21.3291C62.0002 21.7003 63.2601 22.8558 63.7685 24.4202C64.2768 25.9847 63.9367 27.6603 62.8585 28.9024L52.1151 41.2806L53.532 57.6107C53.6742 59.2495 52.9646 60.8052 51.6339 61.7721C50.3031 62.7388 48.6045 62.9328 47.0903 62.2912L32 55.8971L16.9096 62.2913C16.3196 62.5413 15.7015 62.6645 15.0882 62.6645ZM32 3.8357C31.2401 3.8357 30.5526 4.22445 30.1608 4.87557L21.4371 19.3734C21.2626 19.6634 20.9778 19.8703 20.6482 19.9467L4.1661 23.7647C3.42585 23.9362 2.84372 24.4701 2.60897 25.1928C2.37422 25.9156 2.53135 26.6899 3.02947 27.2638L14.12 40.042C14.3418 40.2976 14.4505 40.6322 14.4213 40.9693L12.9586 57.8268C12.8928 58.5842 13.2207 59.303 13.8355 59.7496C14.45 60.1961 15.2346 60.286 15.9342 59.9893L31.5122 53.3886C31.824 53.2565 32.1757 53.2565 32.4875 53.3886L48.0655 59.9893C48.765 60.2857 49.5495 60.1961 50.1642 59.7496C50.7791 59.303 51.107 58.5842 51.0411 57.827L49.5784 40.9693C49.5492 40.6322 49.6578 40.2976 49.8797 40.042L60.9703 27.2638C61.4685 26.6898 61.6256 25.9157 61.3907 25.1928C61.1558 24.4701 60.5737 23.9362 59.8336 23.7647L43.3515 19.9468C43.0217 19.8704 42.7371 19.6636 42.5626 19.3736L33.8388 4.8757C33.4472 4.22445 32.7598 3.8357 32 3.8357Z" fill="black"/>
</g>
<defs>
<clipPath id="clip0">
<rect width="64" height="64" fill="white"/>
</clipPath>
</defs>
</svg>
