<svg width="32" height="32" viewBox="0 0 32 32" fill="none" xmlns="http://www.w3.org/2000/svg">
<path d="M25.607 2.414C24.1151 0.724 21.4151 0 17.961 0H7.93702C7.23102 0 6.63102 0.51 6.51902 1.2L2.34508 27.462C2.26308 27.98 2.66708 28.448 3.19508 28.448H9.38308L10.9371 18.668L10.8891 18.976C10.9991 18.286 11.5971 17.776 12.3031 17.776H15.2431C21.0211 17.776 25.5431 15.448 26.8651 8.714C26.9051 8.514 26.9671 8.13 26.9671 8.13C27.343 5.638 26.965 3.948 25.607 2.414Z" fill="#000"/>
<path d="M28.5332 9.40601C27.0972 16.036 22.5152 19.544 15.2432 19.544H12.6072L10.6392 32H14.9152C15.5332 32 16.0592 31.554 16.1552 30.948L16.2052 30.684L17.1892 24.502L17.2532 24.162C17.3492 23.556 17.8752 23.11 18.4912 23.11H19.2732C24.3272 23.11 28.2832 21.074 29.4392 15.184C29.9032 12.82 29.6792 10.838 28.5332 9.40601Z" fill="#000"/>
</svg>
