<svg width="72" height="22" viewBox="0 0 72 22" fill="none" xmlns="http://www.w3.org/2000/svg">
<path d="M28.8291 0.366211L25.1699 21.6804H31.0222L34.6843 0.366211H28.8291Z" fill="white"/>
<path d="M20.2632 0.389981L14.5314 14.9257L13.9203 12.7309C12.7899 10.0864 9.58076 6.28852 5.81323 3.89504L11.0544 21.6698L17.2468 21.6594L26.4631 0.385498L20.2632 0.389981Z" fill="white"/>
<path d="M11.6984 1.91521C11.3583 0.616871 10.3724 0.22991 9.14863 0.183594H0.0752602L0 0.607907C7.06091 2.30815 11.7331 6.40485 13.6718 11.3308L11.6984 1.91521Z" fill="white"/>
<path d="M46.5453 4.45229C48.46 4.42241 49.8478 4.83776 50.9255 5.26805L51.4538 5.51457L52.2455 0.894939C51.0865 0.463156 49.2698 0 47.0029 0C41.2199 0 37.1438 2.891 37.1122 7.03402C37.0746 10.0953 40.0158 11.8046 42.2374 12.825C44.5178 13.8708 45.2825 14.5357 45.2719 15.4695C45.2539 16.8963 43.4536 17.5507 41.7723 17.5507C39.4287 17.5507 38.1839 17.2295 36.2618 16.4346L35.5077 16.094L34.6843 20.8645C36.0541 21.4606 38.5813 21.9731 41.2049 22C47.3566 22 51.3545 19.1434 51.3966 14.7165C51.4222 12.2946 49.8613 10.4465 46.4791 8.92998C44.432 7.94092 43.1797 7.28353 43.1917 6.2855C43.1917 5.39952 44.2544 4.45229 46.5453 4.45229Z" fill="white"/>
<path d="M67.2646 0.389893H62.7429C61.3386 0.389893 60.294 0.769383 59.6768 2.15886L50.9873 21.6922H57.1331C57.1331 21.6922 58.1355 19.0656 58.3628 18.4904C59.0356 18.4904 65.0068 18.4994 65.8572 18.4994C66.0318 19.2434 66.5707 21.6922 66.5707 21.6922H71.9999L67.2646 0.389893ZM60.0471 14.1278C60.5288 12.9041 62.3787 8.17095 62.3787 8.17095C62.3471 8.22922 62.8558 6.93835 63.1584 6.13604L63.5527 7.97373C63.5527 7.97373 64.6741 13.0625 64.9089 14.1278H60.0471Z" fill="white"/>
</svg>
