<svg width="42" height="42" viewBox="0 0 42 42" fill="none" xmlns="http://www.w3.org/2000/svg">
<path d="M21 2C26.1623 2 26.8064 2.019 28.8318 2.114C30.8553 2.209 32.2328 2.5263 33.445 2.9975C34.699 3.4801 35.7554 4.1337 36.8118 5.1882C37.7779 6.138 38.5255 7.28692 39.0025 8.555C39.4718 9.7653 39.791 11.1447 39.886 13.1682C39.9753 15.1936 40 15.8377 40 21C40 26.1623 39.981 26.8064 39.886 28.8318C39.791 30.8553 39.4718 32.2328 39.0025 33.445C38.5269 34.7138 37.7791 35.863 36.8118 36.8118C35.8617 37.7776 34.7129 38.5251 33.445 39.0025C32.2347 39.4718 30.8553 39.791 28.8318 39.886C26.8064 39.9753 26.1623 40 21 40C15.8377 40 15.1936 39.981 13.1682 39.886C11.1447 39.791 9.7672 39.4718 8.555 39.0025C7.28642 38.5265 6.1373 37.7788 5.1882 36.8118C4.22187 35.8622 3.47427 34.7132 2.9975 33.445C2.5263 32.2347 2.209 30.8553 2.114 28.8318C2.0247 26.8064 2 26.1623 2 21C2 15.8377 2.019 15.1936 2.114 13.1682C2.209 11.1428 2.5263 9.7672 2.9975 8.555C3.47295 7.28614 4.22073 6.13691 5.1882 5.1882C6.13757 4.22154 7.28661 3.47389 8.555 2.9975C9.7672 2.5263 11.1428 2.209 13.1682 2.114C15.1936 2.0247 15.8377 2 21 2ZM21 11.5C18.4804 11.5 16.0641 12.5009 14.2825 14.2825C12.5009 16.0641 11.5 18.4804 11.5 21C11.5 23.5196 12.5009 25.9359 14.2825 27.7175C16.0641 29.4991 18.4804 30.5 21 30.5C23.5196 30.5 25.9359 29.4991 27.7175 27.7175C29.4991 25.9359 30.5 23.5196 30.5 21C30.5 18.4804 29.4991 16.0641 27.7175 14.2825C25.9359 12.5009 23.5196 11.5 21 11.5ZM33.35 11.025C33.35 10.3951 33.0998 9.79102 32.6544 9.34562C32.209 8.90022 31.6049 8.65 30.975 8.65C30.3451 8.65 29.741 8.90022 29.2956 9.34562C28.8502 9.79102 28.6 10.3951 28.6 11.025C28.6 11.6549 28.8502 12.259 29.2956 12.7044C29.741 13.1498 30.3451 13.4 30.975 13.4C31.6049 13.4 32.209 13.1498 32.6544 12.7044C33.0998 12.259 33.35 11.6549 33.35 11.025ZM21 15.3C22.5117 15.3 23.9616 15.9005 25.0305 16.9695C26.0995 18.0384 26.7 19.4883 26.7 21C26.7 22.5117 26.0995 23.9616 25.0305 25.0305C23.9616 26.0995 22.5117 26.7 21 26.7C19.4883 26.7 18.0384 26.0995 16.9695 25.0305C15.9005 23.9616 15.3 22.5117 15.3 21C15.3 19.4883 15.9005 18.0384 16.9695 16.9695C18.0384 15.9005 19.4883 15.3 21 15.3Z" fill="white"/>
</svg>
