<svg width="50" height="30" viewBox="0 0 50 30" fill="none" xmlns="http://www.w3.org/2000/svg">
<path d="M34.414 0C30.9974 0 27.7001 1.07481 25.0001 3.0468C22.2998 1.07472 19.0026 0 15.586 0C6.99189 0 0 6.72895 0 15C0 23.2711 6.99189 30 15.586 30C19.0026 30 22.2999 28.9252 25.0001 26.9533C27.7001 28.9253 30.9973 30 34.414 30C43.0081 30 50 23.2711 50 15C50 6.72895 43.0081 0 34.414 0ZM25 6.86259C25.4827 7.38045 25.9195 7.93769 26.3042 8.52585H23.6957C24.0804 7.93778 24.5172 7.38036 25 6.86259ZM22.3384 11.3454H27.6616C27.9009 12.0769 28.0668 12.8269 28.1581 13.5902H21.8418C21.9331 12.827 22.099 12.077 22.3384 11.3454ZM21.8418 16.4098H28.1581C28.0668 17.173 27.9009 17.9231 27.6616 18.6546H22.3384C22.099 17.923 21.9331 17.173 21.8418 16.4098ZM25.0001 23.1376C24.5173 22.6196 24.0805 22.0623 23.6957 21.4742H26.3043C25.9195 22.0623 25.4828 22.6196 25.0001 23.1376ZM34.414 27.1805C31.8167 27.1805 29.3044 26.4164 27.1956 25.0053C28.4039 23.7049 29.3782 22.2027 30.0518 20.5901C30.7949 18.8111 31.1719 16.9303 31.1719 15C31.1719 13.0697 30.795 11.1889 30.0518 9.40977C29.3783 7.79737 28.4039 6.29511 27.1956 4.99474C29.3044 3.58365 31.8167 2.81945 34.414 2.81945C41.3928 2.81955 47.0703 8.28365 47.0703 15C47.0703 21.7164 41.3928 27.1805 34.414 27.1805Z" fill="white"/>
</svg>
