<svg width="200" height="96" viewBox="0 0 200 96" fill="none" xmlns="http://www.w3.org/2000/svg">
<path d="M83.5603 50.9429C82.7623 52.6521 81.9095 54.4662 80.9968 56.3753C80.0841 58.2893 79.0019 60.0535 77.7501 61.6827C76.4982 63.3069 75.032 64.6362 73.3512 65.6607C71.6705 66.6902 69.6357 67.2 67.2468 67.2C65.0823 67.2 63.1921 66.5303 61.5662 65.191C59.9453 63.8516 59.1025 61.8126 59.0476 59.0739C59.0476 57.8196 59.2022 56.4802 59.5164 55.0509C59.8306 53.6266 60.2845 52.2123 60.8829 50.813C61.4814 49.4137 62.1796 48.0593 62.9726 46.75C63.7706 45.4406 64.6534 44.2112 65.6209 43.0718C66.7031 41.8174 67.9001 40.6729 69.2068 39.6484C70.5135 38.6189 71.8251 37.8393 73.1368 37.2946C74.4435 36.7548 75.7102 36.48 76.9371 36.48C78.159 36.48 79.2562 36.8248 80.2238 37.5045C81.0217 38.1342 81.4905 38.9338 81.6352 39.9033C81.7748 40.8728 81.6202 41.9423 81.1664 43.1117C80.7075 44.2812 79.9993 45.4656 79.0318 46.665C78.0643 47.8644 76.8972 48.9739 75.5307 50.0034C74.8474 50.5181 74.0345 51.0029 73.0969 51.4577C72.1593 51.9124 71.1768 52.3122 70.1494 52.6571C69.122 53.0019 68.1545 53.2718 67.2468 53.4717C66.3341 53.6716 65.596 53.7715 65.0274 53.7715C64.6833 54.5711 64.389 55.6256 64.1297 56.94C63.8753 58.2543 63.7856 59.5387 63.8753 60.7931C63.9601 62.0475 64.3042 63.147 64.9027 64.0865C65.5012 65.026 66.5086 65.4958 67.935 65.4958C69.8152 65.4958 71.5059 64.9411 73.0171 63.8266C74.5233 62.7122 75.8649 61.3878 77.0319 59.8486C78.1989 58.3093 79.1964 56.7101 80.0193 55.0559C80.8422 53.4017 81.5155 52.0024 82.0242 50.863C82.1938 50.4632 82.4082 50.1633 82.6626 49.9634C82.9169 49.7635 83.1463 49.6635 83.3458 49.6635C83.5453 49.6635 83.69 49.7635 83.7747 49.9634C83.8595 50.1633 83.7897 50.4881 83.5603 50.9429ZM74.6779 48.4641C75.815 47.4946 76.7676 46.4101 77.5406 45.2107C78.3086 44.0113 78.8373 42.9018 79.1216 41.8723C79.4059 40.8429 79.4657 39.9883 79.2911 39.3036C79.1216 38.6189 78.6927 38.2891 78.0094 38.3191C77.3261 38.3491 76.3885 38.8038 75.1916 39.6884C73.9946 40.573 72.5134 42.0723 70.7529 44.1812C69.6108 45.5506 68.5734 47.0348 67.6358 48.634C66.6982 50.2333 66.0249 51.4277 65.6309 52.2273C66.0299 52.2273 66.5685 52.1573 67.2518 52.0124C67.935 51.8725 68.7031 51.6426 69.5559 51.3277C70.4087 51.0129 71.2765 50.6131 72.1593 50.1283C73.042 49.6486 73.8799 49.0938 74.6779 48.4641Z" fill="white"/>
<path d="M110.202 51.1606C109.608 52.4498 108.873 53.9891 107.982 55.7783C107.096 57.5676 106.087 59.2931 104.956 60.9402C103.825 62.5922 102.59 64.004 101.242 65.1805C99.8983 66.357 98.4419 66.9452 96.8817 66.9452C96.1794 66.9452 95.4536 66.8031 94.7041 66.5237C93.95 66.2442 93.3184 65.7246 92.8093 64.9697C92.2956 64.2148 91.9892 63.205 91.8808 61.95C91.7724 60.6902 92.0128 59.0823 92.6067 57.1215C92.9319 56.0038 93.4692 54.7293 94.2234 53.3028C94.9775 51.8763 95.9202 50.2096 97.0467 48.3076C97.5322 47.4693 97.8009 46.7438 97.8527 46.1261C97.9045 45.5085 97.7019 45.1457 97.2494 45.033C96.7922 44.9202 96.0805 45.1457 95.1095 45.7046C94.1432 46.2634 92.8753 47.2977 91.3152 48.8125C89.9153 50.1017 88.2609 52.0331 86.352 54.6067C84.443 57.1803 82.355 60.7931 80.0973 65.4354C79.7721 66.0531 79.395 66.4158 78.9661 66.5286C78.5371 66.6413 77.8914 66.6952 77.0288 66.6952C76.435 66.7492 75.94 66.7786 75.5347 66.7786C75.1293 66.7786 74.7146 66.9158 74.2856 67.2001C76.2229 63.1706 78.0658 59.2 79.8145 55.2783C81.5631 51.3616 83.4344 47.4987 85.4234 43.6947C86.4462 41.68 87.3324 40.2829 88.0865 39.4985C88.8407 38.7142 89.8635 38.3515 91.1549 38.4054C91.6923 38.4642 92.2437 38.5622 92.8093 38.6995C93.375 38.8417 93.95 38.8564 94.5439 38.7436C93.95 39.0819 93.2383 39.8074 92.404 40.925C91.5697 42.0476 90.7072 43.3614 89.821 44.8712C88.9349 46.3811 88.0441 47.9938 87.158 49.6998C86.2718 51.4057 85.4753 53.0136 84.7777 54.5283C85.5837 53.4645 86.5924 52.2194 87.8037 50.7929C89.0151 49.3664 90.2358 48.0919 91.4755 46.9742C92.4464 46.082 93.6436 45.1163 95.0671 44.0771C96.4905 43.0427 97.9328 42.1211 99.3846 41.3074C100.836 40.4986 102.194 39.8662 103.462 39.4201C104.725 38.974 105.71 38.8613 106.408 39.0819C104.796 42.1015 103.311 44.9889 101.968 47.7291C101.374 48.9056 100.799 50.1066 100.233 51.337C99.6674 52.5675 99.1442 53.7587 98.6587 54.9058C98.1732 56.0528 97.7584 57.1313 97.4096 58.1362C97.0608 59.146 96.8299 60.0137 96.7215 60.7392C96.3963 62.4746 96.3963 63.6069 96.7215 64.1364C97.0467 64.6707 97.4756 64.9354 98.013 64.9354C99.0358 64.9354 100.11 64.3471 101.242 63.1706C102.373 61.9941 103.448 60.6118 104.47 59.0137C105.493 57.4205 106.408 55.8126 107.214 54.1851C108.02 52.5626 108.637 51.3027 109.071 50.4056C109.396 49.6801 109.759 49.4105 110.159 49.6066C110.569 49.8027 110.579 50.3174 110.202 51.1606Z" fill="white"/>
<path d="M140.654 51.2566C140.024 52.5721 139.244 54.1126 138.299 55.8833C137.36 57.6539 136.315 59.3645 135.175 61.0202C134.035 62.6758 132.821 64.0913 131.536 65.2617C130.251 66.4321 128.982 67.0724 127.727 67.1874C127.042 67.2424 126.303 67.1174 125.503 66.8023C124.703 66.4872 124.048 65.9169 123.533 65.0916C123.018 64.2663 122.719 63.1209 122.634 61.6654C122.549 60.2099 122.819 58.3692 123.448 56.1384C122.764 57.2838 121.879 58.6093 120.794 60.1198C119.709 61.6354 118.54 62.9909 117.285 64.1863C115.63 65.7869 114.101 66.7272 112.706 67.0123C111.307 67.2974 110.122 67.0824 109.152 66.3721C108.182 65.6568 107.483 64.5314 107.053 62.9909C106.623 61.4503 106.553 59.6346 106.838 57.5539C107.123 55.4681 107.823 53.1873 108.932 50.7014C110.047 48.2155 111.687 45.6895 113.856 43.1236C115.111 41.583 116.64 40.2676 118.435 39.1822C120.234 38.0968 122.059 37.3265 123.913 36.8713C125.768 36.4162 127.562 36.3561 129.307 36.7013C131.046 37.0464 132.516 37.8717 133.716 39.1872C134.34 39.8174 134.53 40.4176 134.27 40.9878C134.015 41.558 133.511 41.7881 132.771 41.6731C132.311 40.0775 131.386 39.1021 129.987 38.762C128.587 38.4169 127.092 38.677 125.493 39.5323C123.553 40.6177 121.554 42.2883 119.499 44.5441C117.445 46.7999 115.65 49.2108 114.106 51.7818C113.936 52.0669 113.676 52.522 113.336 53.1523C112.991 53.7825 112.636 54.5078 112.266 55.3381C111.896 56.1684 111.552 57.0237 111.237 57.909C110.922 58.7943 110.707 59.6346 110.597 60.4349C110.367 61.9205 110.467 63.0059 110.897 63.6911C111.327 64.3764 111.926 64.7215 112.696 64.7215C113.466 64.7215 114.366 64.3914 115.391 63.7361C116.42 63.0809 117.445 62.1506 118.475 60.9551C119.959 59.1295 121.314 57.1988 122.539 55.173C123.763 53.1473 124.948 51.0765 126.093 48.9657C127.062 47.1401 127.932 45.7396 128.702 44.7692C129.472 43.7989 130.541 43.3687 131.911 43.4837C132.481 43.5438 133.066 43.6438 133.666 43.7838C134.265 43.9289 134.875 43.9439 135.505 43.8239C135.05 44.284 134.435 45.1243 133.666 46.3498C132.896 47.5802 132.096 48.9757 131.271 50.5463C130.441 52.1169 129.687 53.7325 129.002 55.3881C128.317 57.0437 127.832 58.5292 127.547 59.8397C126.862 63.266 127.147 64.9766 128.402 64.9766C129.312 65.0366 130.311 64.4914 131.396 63.351C132.481 62.2106 133.551 60.8401 134.605 59.2395C135.66 57.6389 136.615 56.0283 137.475 54.3977C138.329 52.7721 138.984 51.5017 139.444 50.5863C139.844 49.8461 140.244 49.556 140.644 49.731C141.054 49.8861 141.054 50.3963 140.654 51.2566Z" fill="white"/>
<path d="M159.985 26.4148C158.103 30.6969 155.878 34.9693 153.3 39.2272C150.722 43.4852 147.448 47.4545 143.473 51.1303C143.257 51.8471 142.989 52.6699 142.669 53.6033C142.344 54.5366 142.052 55.5278 141.784 56.567C141.192 59.04 141.088 60.9885 141.46 62.4175C141.836 63.8464 142.495 64.7654 143.435 65.1791C144.376 65.5929 145.449 65.5111 146.658 64.9338C147.867 64.3564 149.005 63.2979 150.082 61.7631C150.727 60.772 151.357 59.7857 151.973 58.7946C152.59 57.8083 153.154 56.846 153.667 55.9127C154.175 54.9793 154.636 54.1132 155.036 53.3194C155.44 52.5255 155.774 51.852 156.043 51.2987C156.419 50.5866 156.809 50.2691 157.209 50.3508C157.614 50.4326 157.623 50.8849 157.247 51.7124C156.762 52.8094 156.118 54.2383 155.313 55.9944C154.509 57.7506 153.526 59.4537 152.373 61.104C151.216 62.7543 149.861 64.1784 148.304 65.386C146.747 66.5936 144.945 67.1999 142.909 67.1999C141.403 67.1999 140.237 66.9112 139.404 66.3338C138.571 65.7565 137.979 65.0011 137.631 64.0677C137.282 63.1343 137.118 62.0903 137.146 60.9356C137.174 59.7809 137.292 58.6021 137.508 57.3945C137.725 56.1869 137.993 55.0178 138.313 53.8919C138.637 52.7661 138.905 51.7894 139.117 50.9667C139.762 48.6621 140.538 46.218 141.455 43.6343C142.368 41.0555 143.36 38.4863 144.437 35.9315C145.51 33.3767 146.639 30.8941 147.82 28.4741C149 26.0588 150.181 23.8601 151.362 21.8826C152.811 19.4097 154.344 17.6391 155.953 16.5662C157.562 15.4933 158.907 15.1373 159.98 15.4933C161.052 15.8493 161.683 16.9367 161.871 18.7457C162.064 20.5692 161.433 23.1191 159.985 26.4148ZM158.776 25.1832C159.152 24.2498 159.472 23.2346 159.74 22.1328C160.008 21.0359 160.102 20.1698 160.022 19.5396C159.942 18.9093 159.66 18.6735 159.175 18.8371C158.691 19.0007 157.915 19.8812 156.838 21.4737C155.868 22.9026 154.768 24.7983 153.535 27.1558C152.298 29.5181 151.089 32.0055 149.908 34.6132C148.728 37.2209 147.627 39.7757 146.606 42.2776C145.585 44.7794 144.753 46.8482 144.108 48.4985C145.557 47.0166 146.982 45.3279 148.38 43.4323C149.777 41.5366 151.117 39.5592 152.406 37.5C153.695 35.4408 154.876 33.3527 155.953 31.2405C157.03 29.1236 157.971 27.1029 158.776 25.1832Z" fill="white"/>
<path d="M156.591 60.0917C156.198 61.484 156.1 62.6859 156.296 63.6874C156.492 64.6889 157.18 65.2507 158.353 65.3582C158.966 65.4706 159.639 65.3436 160.37 64.982C161.097 64.6205 161.686 64.215 162.137 63.7704C163.536 62.3781 164.91 60.5069 166.255 58.1668C167.6 55.8217 168.862 53.4816 170.04 51.1414C170.378 50.3597 170.741 50.0813 171.134 50.306C171.527 50.5307 171.527 51.0584 171.134 51.8938C170.575 53.0663 169.873 54.5173 169.033 56.2419C168.194 57.9713 167.198 59.6568 166.049 61.3033C164.9 62.9497 163.654 64.342 162.309 65.4852C160.964 66.6284 159.506 67.2001 157.94 67.2001C156.37 67.2001 155.167 66.8385 154.328 66.1106C153.489 65.3875 152.924 64.4788 152.644 63.3894C152.365 62.2999 152.306 61.1323 152.477 59.8767C152.644 58.6211 152.954 57.4388 153.4 56.3201L158.78 42.6846C159.118 41.9029 159.104 41.1799 158.736 40.5106C158.372 39.8413 158.107 39.3967 157.936 39.172L162.559 39.0889C163.904 39.0889 164.645 39.3283 164.788 39.7973C164.925 40.2712 164.773 41.0089 164.326 42.0153L157.602 57.6587C157.489 58.0495 157.351 58.3817 157.18 58.6602C157.067 58.9387 156.954 59.2172 156.841 59.4956C156.728 59.7839 156.645 59.9793 156.591 60.0917ZM168.439 32.2346C168.273 33.1823 167.796 33.9933 167.011 34.6626C166.226 35.332 165.357 35.6691 164.405 35.6691C163.453 35.6691 162.697 35.332 162.137 34.6626C161.578 33.9933 161.352 33.1872 161.465 32.2346C161.632 31.2868 162.108 30.4758 162.893 29.8065C163.678 29.1371 164.547 28.8 165.499 28.8C166.452 28.8 167.222 29.1371 167.811 29.8065C168.395 30.4758 168.606 31.2868 168.439 32.2346Z" fill="white"/>
<path d="M199.715 51.1606C199.09 52.4498 198.316 53.9891 197.378 55.7783C196.445 57.5676 195.383 59.2931 194.192 60.9402C193.001 62.5922 191.701 64.004 190.282 65.1805C188.868 66.357 187.335 66.9452 185.692 66.9452C184.953 66.9452 184.189 66.8031 183.4 66.5237C182.606 66.2442 181.941 65.7246 181.405 64.9697C180.864 64.2148 180.542 63.205 180.428 61.95C180.314 60.6902 180.567 59.0823 181.192 57.1215C181.534 56.0038 182.1 54.7293 182.894 53.3028C183.688 51.8763 184.68 50.2096 185.866 48.3076C186.377 47.4693 186.66 46.7438 186.715 46.1261C186.769 45.5085 186.556 45.1457 186.079 45.033C185.598 44.9202 184.849 45.1457 183.827 45.7046C182.809 46.2634 181.475 47.2977 179.832 48.8125C178.359 50.1017 176.617 52.0331 174.607 54.6067C172.598 57.1803 170.4 60.7931 168.023 65.4354C167.68 66.0531 167.283 66.4158 166.832 66.5286C166.38 66.6413 165.701 66.6952 164.793 66.6952C164.167 66.7492 163.646 66.7786 163.22 66.7786C162.793 66.7786 162.356 66.9158 161.905 67.2001C163.944 63.1706 165.884 59.2 167.725 55.2783C169.566 51.3616 171.536 47.4987 173.63 43.6947C174.707 41.68 175.639 40.2829 176.433 39.4985C177.227 38.7142 178.304 38.3515 179.664 38.4054C180.229 38.4642 180.81 38.5622 181.405 38.6995C182.001 38.8417 182.606 38.8564 183.231 38.7436C182.606 39.0819 181.857 39.8074 180.978 40.925C180.1 42.0476 179.192 43.3614 178.259 44.8712C177.326 46.3811 176.389 47.9938 175.456 49.6998C174.523 51.4057 173.684 53.0136 172.95 54.5283C173.799 53.4645 174.86 52.2194 176.136 50.7929C177.411 49.3664 178.696 48.0919 180.001 46.9742C181.023 46.082 182.283 45.1163 183.782 44.0771C185.28 43.0427 186.799 42.1211 188.327 41.3074C189.855 40.4986 191.284 39.8662 192.619 39.4201C193.949 38.974 194.986 38.8613 195.72 39.0819C194.023 42.1015 192.46 44.9889 191.046 47.7291C190.421 48.9056 189.816 50.1066 189.22 51.337C188.625 52.5675 188.074 53.7587 187.563 54.9058C187.052 56.0528 186.615 57.1313 186.248 58.1362C185.881 59.146 185.638 60.0137 185.524 60.7392C185.181 62.4746 185.181 63.6069 185.524 64.1364C185.866 64.6707 186.318 64.9354 186.883 64.9354C187.96 64.9354 189.091 64.3471 190.282 63.1706C191.473 61.9941 192.604 60.6118 193.681 59.0137C194.758 57.4205 195.72 55.8126 196.569 54.1851C197.417 52.5626 198.067 51.3027 198.524 50.4056C198.866 49.6801 199.248 49.4105 199.67 49.6066C200.097 49.8027 200.107 50.3174 199.715 51.1606Z" fill="white"/>
<path d="M79.9278 6.14242C79.8163 4.8725 79.3023 3.69466 78.3907 2.61377C77.4791 1.53288 76.2717 0.77674 74.7783 0.330811C73.2848 -0.11027 71.5683 -0.11027 69.6287 0.330811C67.6892 0.771893 65.6284 1.89641 63.4415 3.68982C61.2547 5.48807 59.0096 8.09094 56.7161 11.4936C54.4177 14.8962 52.192 19.3119 50.0343 24.7309C48.9287 27.6633 47.8765 30.3486 46.8776 32.7818C46.0485 34.8854 45.2581 36.8921 44.5114 38.797C43.7646 40.7067 43.2506 41.9379 42.9743 42.4904C38.5424 43.043 34.9736 42.7667 32.263 41.6616C29.5525 40.5565 27.5693 39.02 26.3279 37.0569C25.0818 35.0938 24.4999 32.8787 24.5823 30.4164C24.6648 27.9541 25.3 25.5888 26.4928 23.3204C26.6722 22.9811 26.8807 22.666 27.0795 22.3413C25.78 21.9583 24.8248 21.3428 24.2381 20.4848C23.118 21.6772 22.2452 22.9278 21.6342 24.2365C20.5287 26.6164 20.2086 29.035 20.679 31.4973C21.1493 33.9596 22.284 36.1893 24.0829 38.1766C25.8818 40.1687 28.2869 41.7585 31.3078 42.9509C34.3238 44.1433 37.8247 44.6813 41.8105 44.5698C40.3171 47.6671 38.8915 50.4929 37.5338 53.0376C36.1761 55.5823 34.6972 58.1028 33.0922 60.5893C31.5987 60.313 29.9355 60.1192 28.1123 60.0077C26.2843 59.8962 24.4466 59.8817 22.5894 59.9641C20.7323 60.0465 18.9237 60.2113 17.149 60.4633C15.3791 60.7105 13.745 61.0595 12.2516 61.5006C8.54214 62.6057 5.73462 64.0065 3.82415 65.6933C1.91368 67.38 0.725699 69.0814 0.255355 70.7972C-0.21499 72.5131 -0.0355798 74.1465 0.793584 75.6927C1.62275 77.2389 2.91256 78.4749 4.65332 79.3862C6.39892 80.2974 8.51305 80.7434 11.0054 80.7143C13.4977 80.6852 16.1792 79.9775 19.0594 78.5961C21.77 77.3213 24.3593 75.5085 26.8225 73.1577C29.2858 70.8069 31.5987 68.1071 33.7565 65.068C36.4137 65.5672 39.0854 66.1198 41.7669 66.7257C44.4532 67.3364 47.0958 68.0829 49.6949 68.965C52.2939 69.852 54.8008 70.9135 57.2107 72.1592C59.6206 73.4049 61.8171 74.9124 63.81 76.6815C65.192 77.8981 66.2587 79.2941 67.0055 80.8742C67.7522 82.4495 68.2371 84.0006 68.4601 85.5226C68.6783 87.0445 68.722 88.4696 68.5862 89.7976C68.4456 91.1257 68.2128 92.1485 67.8783 92.8707C67.7134 93.2051 67.5049 93.6171 67.2576 94.1164C67.0103 94.6156 66.8697 95.0276 66.8406 95.3621C66.8115 95.6965 66.9376 95.9001 67.214 95.9825C67.4904 96.0649 68.0722 95.8565 68.9596 95.3621C69.7354 94.9743 70.4239 94.2278 71.0349 93.1227C71.5343 92.2357 71.7962 91.0191 71.8253 89.468C71.8544 87.917 71.578 86.2302 70.9961 84.4077C70.4142 82.5804 69.5124 80.7288 68.3001 78.8482C67.083 76.9675 65.4781 75.2517 63.4852 73.7006C61.5456 72.2077 59.4169 70.8118 57.0894 69.5079C54.7668 68.2089 52.3957 67.0456 49.9906 66.0229C47.5807 65.0001 45.1999 64.0889 42.8482 63.2843C40.4965 62.4845 38.2951 61.8302 36.2488 61.3358C36.5252 60.8365 36.8161 60.3664 37.1216 59.9253C37.4271 59.4842 37.718 59.014 37.9944 58.5148C39.4879 55.8586 40.7777 53.4254 41.8542 51.2103C42.9355 49 44.0798 46.6734 45.3017 44.2402C48.2353 43.741 51.1689 42.8443 54.1025 41.5404C57.0361 40.2414 59.8291 38.6516 62.4911 36.7661C65.1483 34.8854 67.597 32.7527 69.8372 30.3777C72.0774 27.9978 73.9879 25.4821 75.5686 22.826C77.1445 20.1698 78.3228 17.4167 79.0986 14.5666C79.8696 11.7165 80.146 8.91009 79.9278 6.14242ZM17.7357 76.2792C15.19 77.4958 12.848 78.1744 10.7193 78.3101C8.59063 78.4459 6.80138 78.2423 5.36611 77.6897C3.92598 77.1372 2.90286 76.3228 2.2919 75.242C1.68093 74.1611 1.6276 73.0026 2.12703 71.7569C2.62647 70.5112 3.77082 69.2655 5.57461 68.0199C7.37356 66.7742 9.93378 65.7369 13.2553 64.9081C15.9658 64.1907 18.8315 63.8029 21.8476 63.7448C24.8636 63.6914 27.7535 63.9677 30.5223 64.5736C26.5946 70.1622 22.3324 74.0641 17.7357 76.2792ZM73.9491 19.2973C72.2326 23.0344 69.9633 26.437 67.1412 29.5052C64.3192 32.5782 61.0946 35.2199 57.4677 37.4301C53.8407 39.6452 50.1749 41.1672 46.4655 41.996C47.2946 40.2269 48.1384 38.4819 48.9966 36.7661C49.8549 35.0502 50.6452 33.504 51.3629 32.1178C52.192 30.5134 52.9921 28.9914 53.7728 27.5518C56.9828 21.2458 59.9697 16.4182 62.7384 13.0689C65.5071 9.71955 67.8977 7.44143 69.9197 6.21998C71.9417 5.00337 73.5466 4.64468 74.7346 5.13908C75.9226 5.63833 76.519 6.57866 76.519 7.96007C76.5239 11.7892 75.6656 15.5651 73.9491 19.2973Z" fill="white"/>
<path d="M95.8573 79.7788H93.2896V78.5525H99.8581V79.7788H97.2903V86.3562H95.8525V79.7788H95.8573Z" fill="white"/>
<path d="M115.347 85.1443V86.3609H109.543V78.5571H115.193V79.7737H110.98V81.8047H114.717V82.997H110.98V85.1491H115.347V85.1443Z" fill="white"/>
<path d="M130.34 86.3562L128.238 83.3898L126.161 86.3562H124.526L127.402 82.3768L124.68 78.5525H126.305L128.286 81.3298L130.244 78.5525H131.802L129.094 82.3186L132.003 86.3562H130.34Z" fill="white"/>
<path d="M142.962 79.7788H140.394V78.5525H146.963V79.7788H144.395V86.3562H142.957V79.7788H142.962Z" fill="white"/>
<path d="M156.648 78.5525H158.085V86.3562H156.648V78.5525Z" fill="white"/>
<path d="M168.775 78.5525H170.212V85.1299H174.261V86.3562H168.775V78.5525Z" fill="white"/>
<path d="M189.803 85.1443V86.3609H183.999V78.5571H189.649V79.7737H185.436V81.8047H189.173V82.997H185.436V85.1491H189.803V85.1443Z" fill="white"/>
<path d="M45.3529 20.2376C45.1124 20.3879 44.7951 20.4461 44.4633 20.5042C44.1988 20.5478 43.9295 20.5963 43.6602 20.6933C42.6697 21.0519 42.0975 21.9196 41.5445 22.7581C41.0684 23.4852 40.6164 24.1686 39.9336 24.474C39.6258 24.6097 39.2989 24.6484 38.9719 24.6145C38.3179 24.5467 37.6784 24.1831 37.2552 23.7275C36.8609 23.2961 36.5532 22.7387 36.3272 22.0456C36.2598 21.842 36.2021 21.6287 36.1492 21.4009C36.1011 21.1974 36.0627 20.9889 36.0242 20.766C36.0194 20.7272 36.0146 20.6884 36.005 20.6496C35.779 19.1422 35.8126 17.7511 36.0771 16.5927C36.5003 16.5151 36.9282 16.3648 37.3418 16.1419C37.3466 16.1419 37.9476 15.7541 37.9909 15.7202C38.0631 15.6669 38.1304 15.6135 38.1929 15.5554C38.4525 15.3373 38.6834 15.0949 38.8805 14.838C38.9142 14.8283 39.3998 14.1449 39.3277 14.1304C39.3469 14.0916 39.3662 14.048 39.3854 14.0043C39.496 13.762 39.5778 13.5148 39.6307 13.2676C40.4048 13.2773 41.2848 13.5002 42.2609 13.9365C43.6699 14.5617 44.8239 15.7299 45.4683 17.1404C45.5308 17.2761 45.5885 17.4167 45.6414 17.5572C45.6847 17.6735 45.7231 17.7899 45.7616 17.9111C45.7664 17.9353 45.776 17.9547 45.7808 17.9789C46.0309 18.8271 45.9876 19.8353 45.3529 20.2376Z" fill="white"/>
<path d="M31.61 24.0184C31.2974 23.7276 31.1243 23.2962 30.9416 22.8358C30.7637 22.3947 30.5857 21.9391 30.2636 21.5465C29.8308 21.0181 29.2393 20.7273 28.619 20.5237C28.244 20.4025 27.8545 20.3153 27.4842 20.2329L27.2774 20.1893C26.0609 19.913 25.3492 19.4816 25.0992 18.8612C24.7674 18.0275 25.3588 17.0581 25.6281 16.68C25.9839 16.1808 26.4167 15.73 26.9168 15.3325C27.0466 15.2259 27.1861 15.129 27.3303 15.032C27.4794 14.9302 27.6333 14.8284 27.7968 14.7363C28.4363 14.3583 29.1528 14.0529 29.9173 13.8396C30.706 13.6215 31.4753 13.544 32.2591 13.5149C32.2639 13.83 32.3072 14.1353 32.3841 14.431C32.4082 14.5134 32.4274 14.5909 32.4563 14.6685C32.4755 14.7267 32.4996 14.78 32.5236 14.8333C32.5813 14.969 32.6438 15.095 32.7159 15.2114C32.74 15.255 32.7688 15.2986 32.7929 15.3374L33.2016 15.8221C34.0335 16.5637 35.0673 16.6219 35.2212 16.6315C34.9664 17.8821 34.9471 19.341 35.1972 20.8969C35.2597 21.2799 35.3366 21.6385 35.428 21.973C35.0529 22.7485 34.6009 23.495 33.9421 23.9603C33.2689 24.4353 32.2207 24.5856 31.61 24.0184Z" fill="white"/>
<path d="M24.527 11.2025C24.652 10.9457 24.8924 10.7324 25.1473 10.5046C25.3444 10.3252 25.5512 10.141 25.7291 9.91808C26.3831 9.08438 26.4167 8.04712 26.4504 7.03893C26.4792 6.16646 26.5033 5.34246 26.9264 4.72689C27.1188 4.45061 27.3784 4.24218 27.6718 4.09677C28.2632 3.80595 28.9989 3.77687 29.5952 3.94167C29.9655 4.04345 30.3309 4.2131 30.6964 4.45545C30.8983 4.59117 31.1051 4.74628 31.3071 4.92077C31.5571 5.13404 31.8023 5.38124 32.0524 5.66237C32.0957 5.71084 32.1389 5.75931 32.1822 5.81263C33.2642 7.07286 34.0095 8.38641 34.3749 9.59817C34.3461 9.61271 34.3124 9.6321 34.2836 9.65149C34.1634 9.7242 34.0431 9.80175 33.9325 9.889C33.8989 9.91323 33.87 9.94231 33.8364 9.96655C33.7594 10.0344 33.6825 10.1023 33.6104 10.175C33.5575 10.2283 32.4996 11.2122 32.3169 12.6567C31.4465 12.6809 30.5858 12.7633 29.6818 13.0153C28.6191 13.311 27.6429 13.7666 26.8014 14.3531C26.2869 14.1059 25.806 13.786 25.3733 13.4031C24.7097 12.8069 24.1856 11.8957 24.527 11.2025Z" fill="white"/>
<path d="M31.1388 2.07501C31.2013 1.37219 31.5427 0.766307 32.038 0.499719C32.0524 0.494872 32.062 0.485178 32.0764 0.480331C32.716 0.155578 33.4998 0.364002 34.322 0.582119C34.8798 0.72753 35.4617 0.882636 36.0483 0.887483C36.7937 0.897177 37.4909 0.664519 38.1593 0.441554C38.7604 0.242825 39.323 0.0537904 39.9 0.0392492C41.3618 0.000472825 42.7996 1.19285 43.2372 2.81176C43.3718 3.30616 43.4199 3.83449 43.391 4.38705C43.1121 4.50823 42.8477 4.65364 42.6072 4.78936C41.5445 5.40978 38.5728 7.29528 37.4813 9.47161C37.3563 9.42314 35.9858 8.94328 35.1587 9.29227C34.75 7.97387 33.9566 6.57792 32.8218 5.24983C32.3505 4.70211 31.8841 4.26103 31.408 3.91204C31.2301 3.3207 31.0859 2.69059 31.1388 2.07501Z" fill="white"/>
<path d="M38.0775 10.8194C38.2265 10.9503 38.3516 11.0957 38.4622 11.2508C38.515 11.3235 38.5583 11.4011 38.6016 11.4738C38.6689 11.5998 38.7266 11.7307 38.7699 11.8664C38.8132 12.0069 38.8468 12.1523 38.8613 12.3026C38.8661 12.3559 38.8709 12.4092 38.8709 12.4674C38.8757 12.545 38.8757 12.6225 38.8709 12.7001C38.8661 12.7679 38.8565 12.8358 38.8468 12.8988C38.8324 13.0151 38.8036 13.1266 38.7747 13.2429C38.7651 13.2817 38.7507 13.3205 38.741 13.3593C38.7026 13.4804 38.6545 13.5968 38.5968 13.7131C38.5343 13.844 38.4573 13.9748 38.3708 14.1057C38.366 14.1106 38.366 14.1154 38.3612 14.1202C38.3467 14.1445 38.3275 14.1639 38.3131 14.1881C38.2265 14.3141 38.1256 14.4353 38.0198 14.5516C37.914 14.668 37.7986 14.7794 37.6735 14.8861C37.6158 14.9394 37.5533 14.9879 37.4908 15.0363C37.4524 15.0654 37.4091 15.0994 37.3658 15.1284C37.3466 15.143 37.3225 15.1575 37.3033 15.1721C37.0965 15.3126 36.8849 15.4338 36.6686 15.5307C36.5724 15.5744 36.4762 15.6083 36.38 15.6422C36.2165 15.7004 36.0482 15.7392 35.8848 15.7634C35.7309 15.7876 35.5818 15.7973 35.4327 15.7925C35.4279 15.7925 35.4279 15.7925 35.4231 15.7925C35.4039 15.7925 35.3799 15.7925 35.3606 15.7925C35.024 15.7779 34.7403 15.7246 34.4951 15.6422C34.3845 15.6034 34.2835 15.5598 34.1921 15.5114C33.9036 15.3611 33.692 15.1624 33.5382 14.9491C33.5093 14.9103 33.4853 14.8764 33.4612 14.8376C33.3795 14.7116 33.3218 14.5807 33.2737 14.4595C33.2641 14.4402 33.2593 14.4159 33.2497 14.3965C33.2064 14.2802 33.1775 14.159 33.1535 14.033C33.1198 13.8634 33.1054 13.6937 33.1006 13.5144C33.1006 13.3738 33.1054 13.2284 33.1198 13.0878C33.1342 12.9473 33.1583 12.8019 33.1919 12.6613C33.2689 12.3317 33.3891 12.0021 33.5478 11.7016C33.5959 11.6143 33.644 11.5271 33.6968 11.4447C33.769 11.3332 33.8459 11.2217 33.9277 11.1199C33.9998 11.0278 34.0767 10.9406 34.1537 10.8582C34.2066 10.8049 34.2595 10.7515 34.3172 10.7031C34.3412 10.6837 34.3652 10.6595 34.3893 10.6401C34.4181 10.6158 34.4422 10.5964 34.471 10.5722C34.5047 10.5431 34.5432 10.5189 34.5768 10.4947C34.6586 10.4365 34.7451 10.388 34.8317 10.3444C34.875 10.3202 34.923 10.3008 34.9663 10.2814C35.0961 10.2232 35.2308 10.1796 35.3654 10.1457C35.3991 10.136 35.4376 10.1311 35.4712 10.1214C35.6539 10.0875 35.8367 10.0681 36.0146 10.0681C36.0867 10.0681 36.1588 10.073 36.2262 10.0778C36.4377 10.0924 36.6493 10.1311 36.8513 10.1844C36.9619 10.2135 37.0677 10.2523 37.1735 10.2911C37.2648 10.325 37.3514 10.3638 37.4331 10.4074C37.4764 10.4316 37.5197 10.4559 37.5629 10.4801C37.5918 10.4947 37.6158 10.5092 37.6447 10.5286C37.7505 10.5916 37.8563 10.6643 37.9476 10.7419C37.9957 10.7515 38.0342 10.7855 38.0775 10.8194Z" fill="white"/>
<path d="M46.3434 16.9803C45.6365 15.2935 44.2853 13.8879 42.6216 13.1512C41.6839 12.7343 40.8664 12.521 40.1596 12.4483C40.0105 12.4338 39.8614 12.4241 39.722 12.4192C39.7124 12.2448 39.6931 12.0751 39.6595 11.9055C39.6306 11.7552 39.5873 11.6098 39.5344 11.4692C39.4864 11.3335 39.4238 11.2075 39.3565 11.0815C39.3373 11.0475 38.4862 10.0345 38.2313 9.8697C38.3948 9.5401 38.616 9.20566 38.8805 8.87606C39.0921 8.61432 39.3325 8.35257 39.5922 8.09568C40.5539 7.15051 41.8089 6.2538 43.0303 5.54129C43.0976 5.50251 43.1649 5.46373 43.2371 5.42496C43.3909 5.33771 43.5544 5.25531 43.7227 5.17776C43.8718 5.1099 44.0257 5.05173 44.1843 4.99842C44.5546 4.88209 44.9441 4.81908 45.3192 4.88209C46.4492 5.07112 47.1849 6.27804 47.4109 7.39771C47.5648 8.149 47.5648 8.91483 47.5648 9.72429C47.5648 10.2526 47.5648 10.8003 47.6129 11.3384C47.6465 11.7358 47.7042 12.1333 47.7667 12.5259C47.8485 13.0639 47.9206 13.568 47.935 14.0818C47.9543 14.7701 47.8533 15.7298 47.2618 16.3841C47.0118 16.6701 46.6944 16.8591 46.3434 16.9803Z" fill="white"/>
<path d="M70.4762 78.3613L76.6369 76.2602L71.1308 79.5518C79.8568 84.3685 85.7143 71.6355 85.7143 71.6355C72.5795 68.9748 70.7313 75.953 70.4762 78.3613Z" fill="white"/>
<path d="M31.8425 56.9284L27.1241 52.2414L32.3809 55.7117C31.3938 45.1104 19.0476 46.1049 19.0476 46.1049C23.8888 59.7322 29.9533 57.9124 31.8425 56.9284Z" fill="white"/>
</svg>
