<svg width="120" height="58" viewBox="0 0 120 58" fill="none" xmlns="http://www.w3.org/2000/svg">
<path d="M50.1362 30.7781C49.6574 31.8107 49.1457 32.9067 48.5981 34.0601C48.0505 35.2165 47.4012 36.2824 46.6501 37.2667C45.899 38.248 45.0192 39.0511 44.0108 39.6701C43.0023 40.2921 41.7814 40.6 40.3481 40.6C39.0494 40.6 37.9153 40.1954 36.9397 39.3863C35.9672 38.5771 35.4615 37.3452 35.4286 35.6906C35.4286 34.9327 35.5214 34.1235 35.7099 33.26C35.8984 32.3995 36.1707 31.545 36.5298 30.6996C36.8889 29.8541 37.3078 29.0359 37.7836 28.2448C38.2624 27.4538 38.792 26.711 39.3726 26.0226C40.0219 25.2647 40.7401 24.5733 41.5241 23.9543C42.3081 23.3323 43.0951 22.8613 43.8821 22.5322C44.6661 22.2061 45.4262 22.04 46.1623 22.04C46.8954 22.04 47.5538 22.2484 48.1343 22.659C48.6131 23.0394 48.8944 23.5225 48.9811 24.1083C49.0649 24.6941 48.9722 25.3402 48.6998 26.0467C48.4245 26.7533 47.9996 27.4688 47.4191 28.1935C46.8386 28.9181 46.1384 29.5884 45.3184 30.2104C44.9085 30.5214 44.4207 30.8143 43.8582 31.0891C43.2956 31.3638 42.7061 31.6054 42.0897 31.8137C41.4732 32.022 40.8927 32.1851 40.3481 32.3059C39.8005 32.4266 39.3576 32.487 39.0165 32.487C38.81 32.9701 38.6334 33.6072 38.4778 34.4013C38.3252 35.1954 38.2714 35.9714 38.3252 36.7292C38.3761 37.4871 38.5826 38.1513 38.9417 38.719C39.3007 39.2866 39.9052 39.5704 40.761 39.5704C41.8892 39.5704 42.9036 39.2353 43.8103 38.562C44.714 37.8887 45.5189 37.0885 46.2192 36.1586C46.9194 35.2286 47.5179 34.2624 48.0116 33.263C48.5053 32.2636 48.9093 31.4182 49.2145 30.7298C49.3163 30.4882 49.445 30.307 49.5976 30.1863C49.7502 30.0655 49.8878 30.0051 50.0075 30.0051C50.1272 30.0051 50.214 30.0655 50.2649 30.1863C50.3157 30.307 50.2738 30.5033 50.1362 30.7781ZM44.8067 29.2805C45.489 28.6947 46.0606 28.0395 46.5244 27.3149C46.9852 26.5902 47.3024 25.9199 47.473 25.2979C47.6435 24.6759 47.6794 24.1596 47.5747 23.746C47.473 23.3323 47.2156 23.133 46.8057 23.1512C46.3957 23.1693 45.8331 23.444 45.115 23.9785C44.3968 24.5129 43.508 25.4187 42.4517 26.6929C41.7665 27.5202 41.1441 28.4169 40.5815 29.3831C40.0189 30.3493 39.6149 31.0709 39.3785 31.554C39.6179 31.554 39.9411 31.5118 40.3511 31.4242C40.761 31.3397 41.2219 31.2008 41.7336 31.0106C42.2453 30.8203 42.7659 30.5788 43.2956 30.2859C43.8252 29.9961 44.328 29.6609 44.8067 29.2805Z" fill="#383838"/>
<path d="M66.1211 30.9094C65.7648 31.6883 65.3236 32.6183 64.7891 33.6993C64.2574 34.7803 63.6522 35.8228 62.9735 36.8179C62.2948 37.816 61.5538 38.6689 60.745 39.3797C59.939 40.0905 59.0651 40.4459 58.1291 40.4459C57.7077 40.4459 57.2722 40.3601 56.8225 40.1912C56.37 40.0224 55.9911 39.7085 55.6856 39.2524C55.3774 38.7963 55.1936 38.1862 55.1285 37.428C55.0635 36.6669 55.2077 35.6954 55.564 34.5108C55.7592 33.8355 56.0816 33.0655 56.534 32.2036C56.9865 31.3418 57.5521 30.3348 58.228 29.1857C58.5193 28.6792 58.6805 28.2409 58.7116 27.8677C58.7428 27.4946 58.6211 27.2754 58.3497 27.2073C58.0753 27.1392 57.6483 27.2754 57.0657 27.613C56.486 27.9507 55.7252 28.5756 54.7891 29.4907C53.9492 30.2697 52.9566 31.4365 51.8112 32.9914C50.6658 34.5463 49.413 36.729 48.0584 39.5337C47.8633 39.9069 47.637 40.1261 47.3797 40.1942C47.1223 40.2623 46.7349 40.2949 46.2173 40.2949C45.861 40.3275 45.5641 40.3452 45.3208 40.3452C45.0776 40.3452 44.8288 40.4282 44.5714 40.6C45.7337 38.1655 46.8395 35.7665 47.8887 33.3972C48.9379 31.0308 50.0606 28.697 51.2541 26.3988C51.8678 25.1815 52.3994 24.3374 52.8519 23.8636C53.3044 23.3897 53.9181 23.1705 54.693 23.2031C55.0154 23.2387 55.3463 23.2979 55.6856 23.3808C56.025 23.4667 56.37 23.4756 56.7264 23.4075C56.37 23.6118 55.943 24.0501 55.4424 24.7254C54.9419 25.4036 54.4243 26.1974 53.8926 27.1096C53.361 28.0217 52.8265 28.9961 52.2948 30.0268C51.7631 31.0575 51.2852 32.0289 50.8666 32.944C51.3502 32.3014 51.9554 31.5491 52.6822 30.6872C53.4091 29.8254 54.1415 29.0554 54.8853 28.3801C55.4679 27.8411 56.1862 27.2576 57.0403 26.6298C57.8943 26.0049 58.7597 25.4481 59.6308 24.9564C60.5018 24.4677 61.3163 24.0857 62.077 23.8162C62.8349 23.5467 63.426 23.4785 63.8445 23.6118C62.8774 25.4362 61.9865 27.1806 61.1805 28.8362C60.8242 29.547 60.4792 30.2726 60.1398 31.016C59.8004 31.7594 59.4865 32.4791 59.1952 33.1721C58.9039 33.8651 58.6551 34.5167 58.4458 35.1238C58.2365 35.7339 58.098 36.2581 58.0329 36.6965C57.8378 37.7449 57.8378 38.429 58.0329 38.7489C58.228 39.0717 58.4854 39.2317 58.8078 39.2317C59.4215 39.2317 60.0663 38.8763 60.745 38.1655C61.4237 37.4547 62.0685 36.6195 62.6822 35.654C63.2959 34.6914 63.8445 33.72 64.3281 32.7367C64.8117 31.7564 65.1822 30.9953 65.4424 30.4533C65.6375 30.0149 65.8553 29.8521 66.0957 29.9705C66.3417 30.089 66.3474 30.4 66.1211 30.9094Z" fill="#383838"/>
<path d="M84.3922 30.9676C84.0143 31.7623 83.5464 32.6931 82.9796 33.7629C82.4158 34.8326 81.7889 35.8661 81.1051 36.8664C80.4213 37.8667 79.6925 38.7219 78.9217 39.429C78.1509 40.1361 77.3891 40.5229 76.6363 40.5924C76.2254 40.6257 75.7816 40.5501 75.3017 40.3598C74.8218 40.1694 74.4289 39.8249 74.12 39.3263C73.8111 38.8276 73.6311 38.1356 73.5802 37.2562C73.5292 36.3768 73.6911 35.2648 74.069 33.917C73.6581 34.609 73.1273 35.4098 72.4765 36.3224C71.8256 37.2381 71.1238 38.057 70.371 38.7793C69.3783 39.7463 68.4606 40.3144 67.6238 40.4867C66.784 40.6589 66.0732 40.529 65.4914 40.0999C64.9095 39.6677 64.4896 38.9878 64.2317 38.057C63.9738 37.1263 63.9318 36.0293 64.1027 34.7722C64.2737 33.512 64.6936 32.134 65.3594 30.6321C66.0282 29.1302 67.012 27.6042 68.3136 26.0539C69.0664 25.1231 69.9841 24.3284 71.0609 23.6726C72.1406 23.0168 73.2353 22.5515 74.348 22.2765C75.4607 22.0015 76.5374 21.9652 77.5841 22.1737C78.6278 22.3822 79.5096 22.8809 80.2294 23.6756C80.6043 24.0564 80.7182 24.419 80.5623 24.7635C80.4093 25.108 80.1064 25.247 79.6625 25.1775C79.3866 24.2135 78.8317 23.6243 77.992 23.4188C77.1522 23.2103 76.2554 23.3674 75.2957 23.8841C74.132 24.5399 72.9323 25.5492 71.6997 26.9121C70.467 28.275 69.3903 29.7316 68.4636 31.2849C68.3616 31.4571 68.2056 31.7321 68.0017 32.1129C67.7947 32.4936 67.5818 32.9318 67.3599 33.4335C67.1379 33.9351 66.931 34.4519 66.742 34.9867C66.5531 35.5216 66.4241 36.0293 66.3581 36.5128C66.2202 37.4103 66.2801 38.0661 66.5381 38.4801C66.796 38.8941 67.1559 39.1026 67.6178 39.1026C68.0797 39.1026 68.6195 38.9032 69.2343 38.5073C69.8522 38.1114 70.467 37.5494 71.0848 36.8271C71.9756 35.7241 72.7884 34.5576 73.5232 33.3337C74.258 32.1099 74.9688 30.8588 75.6556 29.5835C76.2374 28.4805 76.7593 27.6344 77.2212 27.0481C77.683 26.4619 78.3249 26.202 79.1466 26.2715C79.4886 26.3077 79.8395 26.3682 80.1994 26.4528C80.5593 26.5404 80.9252 26.5495 81.3031 26.477C81.0301 26.755 80.6612 27.2627 80.1994 28.003C79.7375 28.7464 79.2576 29.5896 78.7628 30.5385C78.2649 31.4873 77.812 32.4634 77.4011 33.4637C76.9902 34.464 76.6993 35.3615 76.5284 36.1532C76.1175 38.2232 76.2884 39.2567 77.0412 39.2567C77.5871 39.293 78.1869 38.9636 78.8377 38.2746C79.4886 37.5856 80.1304 36.7576 80.7632 35.7906C81.396 34.8236 81.9689 33.8505 82.4847 32.8653C82.9976 31.8832 83.3905 31.1156 83.6664 30.5626C83.9064 30.1154 84.1463 29.9401 84.3862 30.0459C84.6322 30.1396 84.6322 30.4478 84.3922 30.9676Z" fill="#383838"/>
<path d="M95.9906 15.9591C94.8616 18.5461 93.5266 21.1274 91.9799 23.6999C90.4332 26.2724 88.4687 28.6705 86.0837 30.8913C85.9539 31.3244 85.793 31.8215 85.6011 32.3854C85.4063 32.9493 85.2314 33.5481 85.0705 34.176C84.7148 35.6701 84.6527 36.8473 84.8757 37.7107C85.1015 38.574 85.4967 39.1292 86.0612 39.3792C86.6257 39.6292 87.2692 39.5797 87.9946 39.2309C88.7199 38.8821 89.403 38.2426 90.0493 37.3153C90.436 36.7165 90.8142 36.1207 91.184 35.5218C91.5537 34.926 91.8924 34.3446 92.2 33.7807C92.5049 33.2168 92.7815 32.6935 93.0214 32.2139C93.2641 31.7343 93.4645 31.3273 93.6254 30.9931C93.8512 30.5628 94.0855 30.371 94.3254 30.4204C94.5681 30.4698 94.5738 30.7431 94.348 31.243C94.0572 31.9058 93.6706 32.7691 93.1879 33.8301C92.7053 34.8911 92.1154 35.9201 91.4239 36.9171C90.7295 37.9141 89.9167 38.7746 88.9824 39.5042C88.0482 40.2338 86.9672 40.6 85.745 40.6C84.8418 40.6 84.1419 40.4256 83.6423 40.0768C83.1427 39.728 82.7871 39.2716 82.5782 38.7077C82.3694 38.1438 82.2706 37.513 82.2875 36.8154C82.3044 36.1177 82.375 35.4056 82.5048 34.676C82.6347 33.9464 82.7956 33.24 82.9875 32.5598C83.1822 31.8796 83.3431 31.2895 83.4701 30.7925C83.8568 29.4001 84.3225 27.9235 84.8729 26.3625C85.4205 24.8045 86.016 23.2522 86.6623 21.7087C87.3059 20.1652 87.9833 18.6653 88.6917 17.2032C89.4002 15.744 90.1086 14.4156 90.817 13.2209C91.6864 11.7268 92.6065 10.6571 93.5718 10.0089C94.5371 9.36065 95.3443 9.14554 95.9878 9.36065C96.6313 9.57575 97.0095 10.2327 97.1224 11.3256C97.2382 12.4273 96.86 13.9679 95.9906 15.9591ZM95.2653 15.2149C95.4911 14.651 95.683 14.0377 95.8439 13.372C96.0047 12.7093 96.0612 12.1861 96.0132 11.8053C95.9652 11.4245 95.7959 11.282 95.5052 11.3809C95.2145 11.4797 94.7487 12.0116 94.1024 12.9738C93.521 13.8371 92.8605 14.9824 92.121 16.4067C91.3787 17.834 90.6533 19.3368 89.9449 20.9123C89.2364 22.4878 88.576 24.0313 87.9635 25.5428C87.351 27.0543 86.8515 28.3043 86.4648 29.3013C87.3341 28.406 88.1893 27.3857 89.0276 26.2404C89.8659 25.0952 90.6703 23.9005 91.4436 22.6564C92.217 21.4122 92.9254 20.1507 93.5718 18.8746C94.2181 17.5956 94.7826 16.3748 95.2653 15.2149Z" fill="#383838"/>
<path d="M93.9544 36.3052C93.7188 37.1465 93.6599 37.8726 93.7777 38.4777C93.8955 39.0828 94.3078 39.4222 95.0116 39.4871C95.3798 39.555 95.7832 39.4783 96.2221 39.2599C96.6579 39.0414 97.0113 38.7964 97.2823 38.5278C98.1216 37.6866 98.9462 36.5561 99.7531 35.1423C100.56 33.7255 101.317 32.3117 102.024 30.8978C102.227 30.4256 102.445 30.2573 102.68 30.3931C102.916 30.5289 102.916 30.8476 102.68 31.3524C102.345 32.0608 101.924 32.9374 101.42 33.9793C100.916 35.0242 100.319 36.0425 99.6294 37.0373C98.9403 38.032 98.1923 38.8732 97.3853 39.5639C96.5784 40.2546 95.7037 40.5999 94.7643 40.5999C93.8219 40.5999 93.1003 40.3815 92.5967 39.9417C92.0931 39.5048 91.7545 38.9558 91.5866 38.2976C91.4187 37.6394 91.3834 36.934 91.4865 36.1754C91.5866 35.4168 91.7721 34.7025 92.0401 34.0266L95.2679 25.7885C95.4711 25.3162 95.4622 24.8794 95.2414 24.475C95.0234 24.0706 94.8644 23.802 94.7613 23.6663L97.5355 23.6161C98.3425 23.6161 98.7872 23.7607 98.8726 24.0441C98.955 24.3304 98.8637 24.7761 98.5957 25.3841L94.5611 34.8353C94.4933 35.0715 94.4109 35.2722 94.3078 35.4404C94.2401 35.6087 94.1723 35.7769 94.1046 35.9451C94.0369 36.1193 93.9868 36.2374 93.9544 36.3052ZM101.064 19.4749C100.964 20.0475 100.678 20.5375 100.207 20.9419C99.7354 21.3463 99.2142 21.5499 98.6429 21.5499C98.0715 21.5499 97.618 21.3463 97.2823 20.9419C96.9465 20.5375 96.811 20.0505 96.8788 19.4749C96.9789 18.9023 97.2646 18.4123 97.7358 18.0079C98.207 17.6036 98.7283 17.3999 99.2996 17.3999C99.8709 17.3999 100.333 17.6036 100.687 18.0079C101.037 18.4123 101.164 18.9023 101.064 19.4749Z" fill="#383838"/>
<path d="M119.829 30.9094C119.454 31.6883 118.989 32.6183 118.427 33.6993C117.867 34.7803 117.23 35.8228 116.515 36.8179C115.801 37.816 115.021 38.6689 114.169 39.3797C113.321 40.0905 112.401 40.4459 111.415 40.4459C110.972 40.4459 110.513 40.3601 110.04 40.1912C109.564 40.0224 109.165 39.7085 108.843 39.2524C108.519 38.7963 108.325 38.1862 108.257 37.428C108.188 36.6669 108.34 35.6954 108.715 34.5108C108.921 33.8355 109.26 33.0655 109.736 32.2036C110.213 31.3418 110.808 30.3348 111.52 29.1857C111.826 28.6792 111.996 28.2409 112.029 27.8677C112.061 27.4946 111.933 27.2754 111.648 27.2073C111.359 27.1392 110.909 27.2754 110.296 27.613C109.686 27.9507 108.885 28.5756 107.899 29.4907C107.015 30.2697 105.97 31.4365 104.764 32.9914C103.559 34.5463 102.24 36.729 100.814 39.5337C100.608 39.9069 100.37 40.1261 100.099 40.1942C99.8282 40.2623 99.4204 40.2949 98.8755 40.2949C98.5004 40.3275 98.1878 40.3452 97.9318 40.3452C97.6757 40.3452 97.4137 40.4282 97.1428 40.6C98.3664 38.1655 99.5305 35.7665 100.635 33.3972C101.74 31.0308 102.922 28.697 104.178 26.3988C104.824 25.1815 105.384 24.3374 105.86 23.8636C106.336 23.3897 106.982 23.1705 107.798 23.2031C108.138 23.2387 108.486 23.2979 108.843 23.3808C109.2 23.4667 109.564 23.4756 109.939 23.4075C109.564 23.6118 109.114 24.0501 108.587 24.7254C108.06 25.4036 107.515 26.1974 106.956 27.1096C106.396 28.0217 105.833 28.9961 105.274 30.0268C104.714 31.0575 104.211 32.0289 103.77 32.944C104.279 32.3014 104.916 31.5491 105.681 30.6872C106.447 29.8254 107.218 29.0554 108.001 28.3801C108.614 27.8411 109.37 27.2576 110.269 26.6298C111.168 26.0049 112.079 25.4481 112.996 24.9564C113.913 24.4677 114.771 24.0857 115.572 23.8162C116.369 23.5467 116.992 23.4785 117.432 23.6118C116.414 25.4362 115.476 27.1806 114.628 28.8362C114.253 29.547 113.889 30.2726 113.532 31.016C113.175 31.7594 112.844 32.4791 112.538 33.1721C112.231 33.8651 111.969 34.5167 111.749 35.1238C111.529 35.7339 111.383 36.2581 111.314 36.6965C111.109 37.7449 111.109 38.429 111.314 38.7489C111.52 39.0717 111.791 39.2317 112.13 39.2317C112.776 39.2317 113.455 38.8763 114.169 38.1655C114.884 37.4547 115.563 36.6195 116.209 35.654C116.855 34.6914 117.432 33.72 117.941 32.7367C118.451 31.7564 118.841 30.9953 119.114 30.4533C119.32 30.0149 119.549 29.8521 119.802 29.9705C120.058 30.089 120.064 30.4 119.829 30.9094Z" fill="#383838"/>
<path d="M47.9567 3.71105C47.8898 2.9438 47.5814 2.23219 47.0344 1.57915C46.4875 0.926114 45.763 0.46928 44.867 0.199865C43.9709 -0.0666217 42.941 -0.0666217 41.7772 0.199865C40.6135 0.466352 39.377 1.14575 38.0649 2.22926C36.7528 3.31571 35.4058 4.88827 34.0296 6.94403C32.6506 8.99978 31.3152 11.6676 30.0206 14.9416C29.3572 16.7133 28.7259 18.3356 28.1266 19.8057C27.6291 21.0766 27.1549 22.289 26.7068 23.4398C26.2588 24.5936 25.9504 25.3375 25.7846 25.6713C23.1254 26.0052 20.9841 25.8382 19.3578 25.1705C17.7315 24.5029 16.5416 23.5746 15.7968 22.3885C15.0491 21.2025 14.6999 19.8642 14.7494 18.3766C14.7989 16.889 15.18 15.4599 15.8957 14.0894C16.0033 13.8844 16.1284 13.694 16.2477 13.4978C15.468 13.2665 14.8949 12.8946 14.5428 12.3763C13.8708 13.0966 13.3471 13.8522 12.9805 14.6429C12.3172 16.0807 12.1252 17.542 12.4074 19.0296C12.6896 20.5173 13.3704 21.8644 14.4497 23.065C15.5291 24.2686 16.9721 25.2291 18.7847 25.9495C20.5943 26.6699 22.6948 26.995 25.0863 26.9276C24.1902 28.7989 23.3349 30.5061 22.5203 32.0436C21.7057 33.581 20.8183 35.1038 19.8553 36.606C18.9592 36.4391 17.9613 36.322 16.8674 36.2546C15.7706 36.1873 14.6679 36.1785 13.5537 36.2283C12.4394 36.2781 11.3542 36.3776 10.2894 36.5299C9.22746 36.6793 8.24701 36.8901 7.35094 37.1566C5.12529 37.8243 3.44077 38.6706 2.29449 39.6897C1.14821 40.7088 0.435419 41.7367 0.153213 42.7733C-0.128994 43.81 -0.0213479 44.7969 0.47615 45.731C0.973649 46.6652 1.74753 47.4119 2.79199 47.9625C3.83935 48.513 5.10783 48.7824 6.60323 48.7649C8.09864 48.7473 9.70751 48.3197 11.4357 47.4851C13.062 46.715 14.6156 45.6197 16.0935 44.1995C17.5715 42.7792 18.9592 41.148 20.2539 39.3119C21.8482 39.6135 23.4513 39.9474 25.0601 40.3134C26.6719 40.6824 28.2575 41.1334 29.8169 41.6664C31.3763 42.2023 32.8805 42.8436 34.3264 43.5962C35.7723 44.3488 37.0903 45.2595 38.286 46.3284C39.1152 47.0635 39.7552 47.9068 40.2033 48.8615C40.6513 49.8133 40.9422 50.7503 41.0761 51.6699C41.207 52.5894 41.2332 53.4504 41.1517 54.2527C41.0673 55.0551 40.9277 55.673 40.727 56.1094C40.628 56.3114 40.5029 56.5603 40.3546 56.862C40.2062 57.1636 40.1218 57.4125 40.1044 57.6146C40.0869 57.8166 40.1625 57.9396 40.3284 57.9894C40.4942 58.0392 40.8433 57.9133 41.3757 57.6146C41.8412 57.3803 42.2544 56.9293 42.6209 56.2616C42.9206 55.7257 43.0777 54.9907 43.0952 54.0536C43.1126 53.1165 42.9468 52.0974 42.5977 50.9963C42.2485 49.8923 41.7074 48.7737 40.9801 47.6374C40.2498 46.5012 39.2868 45.4645 38.0911 44.5274C36.9273 43.6255 35.6501 42.7821 34.2537 41.9944C32.8601 41.2095 31.4374 40.5067 29.9944 39.8888C28.5484 39.2709 27.1199 38.7204 25.7089 38.2343C24.2979 37.7511 22.977 37.3557 21.7493 37.057C21.9151 36.7554 22.0897 36.4713 22.273 36.2049C22.4563 35.9384 22.6308 35.6543 22.7967 35.3527C23.6927 33.7479 24.4666 32.2778 25.1125 30.9395C25.7613 29.6042 26.4479 28.1985 27.181 26.7285C28.9412 26.4268 30.7013 25.8851 32.4615 25.0973C34.2217 24.3125 35.8974 23.352 37.4947 22.2128C39.089 21.0766 40.5582 19.7881 41.9023 18.3532C43.2464 16.9153 44.3927 15.3955 45.3412 13.7907C46.2867 12.1859 46.9937 10.5226 47.4592 8.80065C47.9218 7.07874 48.0876 5.38318 47.9567 3.71105ZM10.6414 46.0854C9.114 46.8204 7.70879 47.2304 6.43158 47.3124C5.15438 47.3944 4.08083 47.2714 3.21966 46.9375C2.35559 46.6037 1.74172 46.1117 1.37514 45.4587C1.00856 44.8056 0.976558 44.1057 1.27622 43.3531C1.57588 42.6005 2.26249 41.8479 3.34477 41.0953C4.42413 40.3427 5.96027 39.716 7.95317 39.2153C9.57949 38.7819 11.2989 38.5476 13.1085 38.5125C14.9181 38.4802 16.6521 38.6472 18.3134 39.0132C15.9568 42.3897 13.3995 44.7471 10.6414 46.0854ZM44.3695 11.6588C43.3395 13.9166 41.978 15.9724 40.2847 17.8261C38.5915 19.6827 36.6568 21.2787 34.4806 22.614C32.3044 23.9523 30.1049 24.8718 27.8793 25.3726C28.3768 24.3037 28.883 23.2495 29.398 22.2128C29.9129 21.1762 30.3871 20.242 30.8177 19.4045C31.3152 18.4352 31.7953 17.5156 32.2637 16.6459C34.1897 12.836 35.9818 9.91931 37.6431 7.89577C39.3043 5.87222 40.7386 4.49586 41.9518 3.7579C43.165 3.02287 44.128 2.80616 44.8408 3.10486C45.5536 3.40649 45.9114 3.97461 45.9114 4.80921C45.9143 7.12266 45.3994 9.40391 44.3695 11.6588Z" fill="#383838"/>
<path d="M57.5144 48.1999H55.9738V47.459H59.9149V48.1999H58.3742V52.1738H57.5115V48.1999H57.5144Z" fill="#383838"/>
<path d="M69.208 51.4414V52.1764H65.7256V47.4617H69.1156V48.1967H66.5882V49.4237H68.83V50.1441H66.5882V51.4443H69.208V51.4414Z" fill="#383838"/>
<path d="M78.2038 52.1738L76.943 50.3816L75.6966 52.1738H74.7157L76.441 49.7695L74.808 47.459H75.7832L76.9719 49.137L78.1461 47.459H79.0809L77.4566 49.7344L79.2021 52.1738H78.2038Z" fill="#383838"/>
<path d="M85.7774 48.1999H84.2367V47.459H88.1778V48.1999H86.6371V52.1738H85.7745V48.1999H85.7774Z" fill="#383838"/>
<path d="M93.9885 47.459H94.8512V52.1738H93.9885V47.459Z" fill="#383838"/>
<path d="M101.265 47.459H102.127V51.4329H104.557V52.1738H101.265V47.459Z" fill="#383838"/>
<path d="M113.882 51.4414V52.1764H110.399V47.4617H113.789V48.1967H111.262V49.4237H113.504V50.1441H111.262V51.4443H113.882V51.4414Z" fill="#383838"/>
<path d="M27.2117 12.2267C27.0674 12.3175 26.877 12.3526 26.6779 12.3878C26.5192 12.4141 26.3577 12.4434 26.1961 12.502C25.6018 12.7187 25.2584 13.2429 24.9266 13.7495C24.641 14.1887 24.3698 14.6017 23.9601 14.7861C23.7755 14.8681 23.5793 14.8916 23.3831 14.8711C22.9907 14.8301 22.607 14.6104 22.3531 14.3352C22.1165 14.0745 21.9318 13.7378 21.7962 13.319C21.7559 13.196 21.7212 13.0672 21.6895 12.9295C21.6606 12.8065 21.6376 12.6806 21.6145 12.5459C21.6116 12.5225 21.6087 12.499 21.6029 12.4756C21.4673 11.5649 21.4875 10.7244 21.6462 10.0245C21.9001 9.97767 22.1569 9.88689 22.405 9.75218C22.4079 9.75218 22.7685 9.51791 22.7945 9.49741C22.8378 9.4652 22.8782 9.43298 22.9157 9.39784C23.0715 9.26606 23.21 9.11964 23.3283 8.96443C23.3485 8.95858 23.6399 8.54567 23.5966 8.53688C23.6081 8.51346 23.6197 8.4871 23.6312 8.46075C23.6976 8.31432 23.7466 8.16497 23.7783 8.01562C24.2429 8.02148 24.7708 8.15619 25.3565 8.41975C26.2019 8.79751 26.8943 9.50327 27.2809 10.3554C27.3184 10.4374 27.353 10.5224 27.3848 10.6073C27.4107 10.6776 27.4338 10.7478 27.4569 10.8211C27.4598 10.8357 27.4656 10.8474 27.4684 10.8621C27.6185 11.3745 27.5925 11.9836 27.2117 12.2267Z" fill="#383838"/>
<path d="M18.966 14.5109C18.7785 14.3352 18.6746 14.0746 18.565 13.7964C18.4582 13.5299 18.3515 13.2546 18.1582 13.0174C17.8985 12.6982 17.5437 12.5225 17.1715 12.3995C16.9464 12.3263 16.7127 12.2736 16.4906 12.2238L16.3665 12.1975C15.6366 12.0306 15.2096 11.7699 15.0595 11.3951C14.8605 10.8914 15.2153 10.3057 15.3769 10.0773C15.5904 9.77567 15.8501 9.50333 16.1501 9.2632C16.228 9.19877 16.3117 9.14021 16.3982 9.08164C16.4877 9.02014 16.58 8.95864 16.6781 8.903C17.0618 8.67459 17.4917 8.49009 17.9505 8.36124C18.4236 8.22946 18.8852 8.18261 19.3555 8.16504C19.3584 8.35539 19.3844 8.53988 19.4305 8.71851C19.445 8.7683 19.4565 8.81515 19.4738 8.862C19.4854 8.89715 19.4998 8.92936 19.5142 8.96157C19.5488 9.04357 19.5863 9.11971 19.6296 9.18999C19.644 9.21634 19.6614 9.2427 19.6758 9.26613L19.921 9.55897C20.4201 10.007 21.0405 10.0422 21.1328 10.048C20.9799 10.8036 20.9683 11.685 21.1184 12.625C21.1559 12.8564 21.202 13.0731 21.2568 13.2751C21.0318 13.7437 20.7606 14.1947 20.3653 14.4758C19.9614 14.7628 19.3324 14.8536 18.966 14.5109Z" fill="#383838"/>
<path d="M14.7162 6.76822C14.7912 6.61301 14.9354 6.48416 15.0884 6.34652C15.2067 6.23817 15.3307 6.12689 15.4375 5.99218C15.8298 5.48849 15.85 4.86181 15.8702 4.2527C15.8875 3.72558 15.902 3.22775 16.1559 2.85584C16.2713 2.68892 16.4271 2.563 16.6031 2.47514C16.9579 2.29944 17.3994 2.28187 17.7571 2.38143C17.9793 2.44293 18.1986 2.54543 18.4178 2.69185C18.539 2.77384 18.6631 2.86755 18.7842 2.97298C18.9343 3.10183 19.0814 3.25118 19.2314 3.42102C19.2574 3.45031 19.2834 3.47959 19.3093 3.51181C19.9585 4.2732 20.4057 5.0668 20.625 5.79891C20.6076 5.80769 20.5875 5.8194 20.5701 5.83112C20.498 5.87505 20.4259 5.9219 20.3595 5.97461C20.3393 5.98925 20.322 6.00682 20.3018 6.02147C20.2557 6.06246 20.2095 6.10346 20.1662 6.14739C20.1345 6.1796 19.4998 6.77407 19.3901 7.64674C18.8679 7.66138 18.3515 7.71117 17.8091 7.86345C17.1714 8.04208 16.5858 8.31735 16.0809 8.67169C15.7721 8.52234 15.4836 8.32907 15.224 8.09772C14.8258 7.73752 14.5113 7.18698 14.7162 6.76822Z" fill="#383838"/>
<path d="M18.6833 1.25369C18.7208 0.829066 18.9256 0.463013 19.2228 0.301949C19.2315 0.299021 19.2372 0.293164 19.2459 0.290235C19.6296 0.0940309 20.0999 0.219953 20.5932 0.351732C20.9279 0.439585 21.277 0.533295 21.629 0.536223C22.0762 0.54208 22.4946 0.401516 22.8956 0.266808C23.2562 0.146743 23.5938 0.032534 23.94 0.0237487C24.8171 0.000321271 25.6798 0.720714 25.9423 1.69881C26.0231 1.99751 26.052 2.31671 26.0346 2.65055C25.8673 2.72376 25.7086 2.81161 25.5644 2.89361C24.9267 3.26844 23.1437 4.4076 22.4888 5.72247C22.4138 5.69318 21.5915 5.40327 21.0953 5.61411C20.85 4.81758 20.374 3.97419 19.6931 3.17181C19.4103 2.84089 19.1305 2.57441 18.8448 2.36356C18.7381 2.00629 18.6515 1.6256 18.6833 1.25369Z" fill="#383838"/>
<path d="M22.8465 6.53667C22.9359 6.61574 23.0109 6.70359 23.0773 6.7973C23.109 6.84123 23.135 6.88808 23.161 6.93201C23.2014 7.00815 23.236 7.08721 23.2619 7.16921C23.2879 7.25413 23.3081 7.34199 23.3168 7.43277C23.3196 7.46498 23.3225 7.49719 23.3225 7.53233C23.3254 7.57919 23.3254 7.62604 23.3225 7.6729C23.3196 7.7139 23.3139 7.75489 23.3081 7.79296C23.2994 7.86325 23.2821 7.9306 23.2648 8.00088C23.2591 8.02431 23.2504 8.04774 23.2446 8.07116C23.2215 8.14437 23.1927 8.21466 23.1581 8.28494C23.1206 8.36401 23.0744 8.44307 23.0225 8.52214C23.0196 8.52507 23.0196 8.528 23.0167 8.53093C23.008 8.54557 22.9965 8.55728 22.9879 8.57193C22.9359 8.64806 22.8753 8.72127 22.8119 8.79156C22.7484 8.86184 22.6791 8.92919 22.6041 8.99362C22.5695 9.02583 22.532 9.05512 22.4945 9.0844C22.4714 9.10197 22.4454 9.12247 22.4195 9.14004C22.4079 9.14882 22.3935 9.15761 22.382 9.1664C22.2579 9.25132 22.131 9.32453 22.0011 9.3831C21.9434 9.40946 21.8857 9.42995 21.828 9.45045C21.7299 9.48559 21.6289 9.50902 21.5309 9.52366C21.4385 9.53831 21.3491 9.54416 21.2596 9.54123C21.2568 9.54123 21.2568 9.54123 21.2539 9.54123C21.2423 9.54123 21.2279 9.54123 21.2164 9.54123C21.0144 9.53245 20.8442 9.50024 20.697 9.45045C20.6307 9.42703 20.5701 9.40067 20.5153 9.37139C20.3422 9.2806 20.2152 9.16054 20.1229 9.03169C20.1056 9.00826 20.0912 8.98776 20.0767 8.96433C20.0277 8.8882 19.9931 8.80913 19.9642 8.73592C19.9584 8.7242 19.9556 8.70956 19.9498 8.69785C19.9238 8.62757 19.9065 8.55435 19.8921 8.47822C19.8719 8.37572 19.8632 8.27323 19.8604 8.16487C19.8604 8.07995 19.8632 7.9921 19.8719 7.90717C19.8805 7.82225 19.895 7.7344 19.9152 7.64947C19.9613 7.45034 20.0335 7.25121 20.1287 7.06964C20.1575 7.01693 20.1864 6.96422 20.2181 6.91444C20.2614 6.84708 20.3075 6.77973 20.3566 6.71823C20.3999 6.66259 20.446 6.60988 20.4922 6.5601C20.5239 6.52788 20.5557 6.49567 20.5903 6.46639C20.6047 6.45467 20.6191 6.44003 20.6336 6.42832C20.6509 6.41368 20.6653 6.40196 20.6826 6.38732C20.7028 6.36975 20.7259 6.35511 20.7461 6.34046C20.7951 6.30532 20.8471 6.27604 20.899 6.24968C20.925 6.23504 20.9538 6.22333 20.9798 6.21161C21.0577 6.17647 21.1385 6.15012 21.2193 6.12962C21.2395 6.12376 21.2625 6.12083 21.2827 6.11498C21.3924 6.09448 21.502 6.08276 21.6088 6.08276C21.652 6.08276 21.6953 6.08569 21.7357 6.08862C21.8626 6.09741 21.9896 6.12083 22.1108 6.15305C22.1771 6.17062 22.2406 6.19404 22.3041 6.21747C22.3589 6.23797 22.4108 6.2614 22.4599 6.28775C22.4858 6.3024 22.5118 6.31704 22.5378 6.33168C22.5551 6.34047 22.5695 6.34925 22.5868 6.36096C22.6503 6.39903 22.7138 6.44296 22.7686 6.48981C22.7974 6.49567 22.8205 6.51617 22.8465 6.53667Z" fill="#383838"/>
<path d="M27.8061 10.259C27.382 9.23988 26.5712 8.39063 25.573 7.94551C25.0104 7.69367 24.5199 7.56482 24.0958 7.52089C24.0063 7.51211 23.9169 7.50625 23.8332 7.50332C23.8275 7.3979 23.8159 7.2954 23.7957 7.19291C23.7784 7.10213 23.7525 7.01427 23.7207 6.92935C23.6919 6.84735 23.6544 6.77122 23.614 6.69508C23.6024 6.67458 23.0918 6.06254 22.9388 5.96297C23.0369 5.76384 23.1697 5.56178 23.3283 5.36264C23.4553 5.20451 23.5995 5.04637 23.7553 4.89117C24.3324 4.32012 25.0854 3.77836 25.8182 3.34789C25.8586 3.32446 25.899 3.30103 25.9423 3.2776C26.0346 3.22489 26.1327 3.17511 26.2337 3.12825C26.3231 3.08726 26.4154 3.05211 26.5107 3.0199C26.7328 2.94962 26.9665 2.91155 27.1916 2.94962C27.8696 3.06383 28.311 3.79301 28.4466 4.46947C28.5389 4.92338 28.5389 5.38607 28.5389 5.87512C28.5389 6.19432 28.5389 6.52523 28.5678 6.85028C28.588 7.09041 28.6226 7.33054 28.6601 7.56775C28.7091 7.8928 28.7524 8.19736 28.7611 8.50777C28.7726 8.92361 28.712 9.50344 28.3572 9.89877C28.2071 10.0716 28.0167 10.1858 27.8061 10.259Z" fill="#383838"/>
<path d="M42.2856 47.3432L45.9821 46.0737L42.6784 48.0624C47.914 50.9725 51.4285 43.2797 51.4285 43.2797C43.5476 41.6722 42.4387 45.8881 42.2856 47.3432Z" fill="#383838"/>
<path d="M19.1055 34.394L16.2745 31.5623L19.4286 33.6589C18.8363 27.254 11.4286 27.8548 11.4286 27.8548C14.3333 36.088 17.972 34.9885 19.1055 34.394Z" fill="#383838"/>
</svg>
