<svg width="226" height="110" viewBox="0 0 226 110" fill="none" xmlns="http://www.w3.org/2000/svg">
<g clip-path="url(#clip0)">
<path d="M94.6061 58.7069C93.7343 60.6062 92.8027 62.6222 91.8056 64.7436C90.8085 66.8707 89.6262 68.8311 88.2587 70.6415C86.8911 72.4465 85.2893 73.9237 83.4532 75.0622C81.6171 76.2063 79.3941 76.7727 76.7843 76.7727C74.4197 76.7727 72.3548 76.0285 70.5786 74.5402C68.8079 73.0518 67.8871 70.7859 67.8271 67.7426C67.8271 66.3486 67.9961 64.8603 68.3393 63.2719C68.6826 61.6892 69.1784 60.1175 69.8322 58.5625C70.486 57.0075 71.2488 55.5024 72.115 54.0474C72.9868 52.5924 73.9512 51.2262 75.0082 49.96C76.1905 48.566 77.4981 47.2942 78.9256 46.1557C80.353 45.0117 81.786 44.1453 83.2189 43.54C84.6464 42.9402 86.0303 42.6348 87.3706 42.6348C88.7055 42.6348 89.9041 43.018 90.9611 43.7733C91.8328 44.473 92.345 45.3616 92.503 46.439C92.6556 47.5164 92.4866 48.7048 91.9908 50.0044C91.4896 51.3039 90.7159 52.6201 89.6589 53.953C88.6019 55.2859 87.327 56.5188 85.8341 57.6628C85.0877 58.2348 84.1996 58.7735 83.1753 59.2789C82.151 59.7843 81.0777 60.2286 79.9553 60.6118C78.8329 60.995 77.7759 61.2948 76.7843 61.517C75.7873 61.7391 74.9809 61.8502 74.3598 61.8502C73.9839 62.7388 73.6624 63.9106 73.3791 65.3712C73.1012 66.8318 73.0031 68.2591 73.1012 69.653C73.1938 71.047 73.5698 72.2687 74.2236 73.3128C74.8774 74.3569 75.978 74.8789 77.5362 74.8789C79.5903 74.8789 81.4373 74.2625 83.0881 73.024C84.7336 71.7856 86.1992 70.3139 87.4741 68.6034C88.749 66.8929 89.8387 65.1157 90.7377 63.2775C91.6367 61.4392 92.3722 59.8842 92.928 58.618C93.1132 58.1737 93.3475 57.8405 93.6254 57.6184C93.9032 57.3962 94.1539 57.2852 94.3718 57.2852C94.5897 57.2852 94.7477 57.3962 94.8404 57.6184C94.933 57.8405 94.8567 58.2015 94.6061 58.7069ZM84.9025 55.9523C86.1447 54.8749 87.1854 53.6698 88.0299 52.3369C88.8689 51.004 89.4464 49.7711 89.757 48.6271C90.0676 47.4831 90.1329 46.5334 89.9422 45.7725C89.757 45.0117 89.2884 44.6452 88.542 44.6785C87.7956 44.7118 86.7713 45.2172 85.4637 46.2002C84.156 47.1832 82.5379 48.8492 80.6146 51.1929C79.3669 52.7145 78.2336 54.364 77.2093 56.1411C76.185 57.9183 75.4495 59.2456 75.0191 60.1341C75.4549 60.1341 76.0434 60.0564 76.7898 59.8953C77.5362 59.7398 78.3753 59.4844 79.3069 59.1345C80.2386 58.7846 81.1866 58.3403 82.151 57.8016C83.1154 57.2685 84.0307 56.652 84.9025 55.9523Z" fill="#DAC6B3"/>
<path d="M125.766 58.9014C125.079 60.362 124.229 62.1059 123.2 64.1329C122.175 66.16 121.009 68.1148 119.702 69.9809C118.394 71.8524 116.967 73.4519 115.408 74.7847C113.856 76.1176 112.172 76.784 110.369 76.784C109.557 76.784 108.718 76.6229 107.852 76.3064C106.98 75.9898 106.25 75.4012 105.661 74.5459C105.067 73.6907 104.713 72.5466 104.588 71.1249C104.463 69.6976 104.74 67.876 105.427 65.6546C105.803 64.3884 106.424 62.9445 107.296 61.3284C108.168 59.7123 109.257 57.824 110.559 55.6692C111.121 54.7196 111.431 53.8977 111.491 53.1979C111.551 52.4981 111.317 52.0872 110.794 51.9594C110.265 51.8317 109.442 52.0872 108.32 52.7203C107.203 53.3534 105.738 54.5252 103.934 56.2413C102.316 57.7019 100.404 59.89 98.1969 62.8056C95.9903 65.7212 93.5767 69.8142 90.9669 75.0735C90.591 75.7732 90.1551 76.1842 89.6593 76.312C89.1635 76.4397 88.4171 76.5008 87.42 76.5008C86.7335 76.5619 86.1614 76.5952 85.6928 76.5952C85.2243 76.5952 84.7448 76.7507 84.249 77.0728C86.4883 72.5077 88.6186 68.0093 90.64 63.5665C92.6614 59.1291 94.8244 54.7529 97.1236 50.4433C98.3059 48.1608 99.3302 46.578 100.202 45.6894C101.074 44.8009 102.256 44.3899 103.749 44.451C104.37 44.5176 105.007 44.6287 105.661 44.7842C106.315 44.9453 106.98 44.9619 107.666 44.8342C106.98 45.2174 106.157 46.0393 105.193 47.3055C104.228 48.5773 103.231 50.0657 102.207 51.7762C101.183 53.4867 100.153 55.3138 99.1286 57.2465C98.1043 59.1791 97.1835 61.0007 96.3772 62.7168C97.3089 61.5116 98.4748 60.101 99.8751 58.4849C101.275 56.8688 102.686 55.4249 104.119 54.1587C105.242 53.1479 106.626 52.0539 108.271 50.8765C109.916 49.7047 111.584 48.6606 113.262 47.7387C114.94 46.8224 116.509 46.106 117.975 45.6006C119.435 45.0952 120.574 44.9675 121.38 45.2174C119.517 48.6384 117.8 51.9095 116.248 55.0139C115.561 56.3468 114.896 57.7074 114.243 59.1014C113.589 60.4953 112.984 61.8448 112.423 63.1444C111.862 64.4439 111.382 65.6657 110.979 66.8042C110.576 67.9482 110.309 68.9312 110.183 69.7532C109.808 71.7191 109.808 73.002 110.183 73.6018C110.559 74.2071 111.055 74.507 111.676 74.507C112.859 74.507 114.101 73.8406 115.408 72.5077C116.716 71.1749 117.958 69.6088 119.141 67.7983C120.323 65.9934 121.38 64.1718 122.312 62.328C123.243 60.4898 123.957 59.0625 124.458 58.0462C124.834 57.2243 125.254 56.9188 125.717 57.141C126.191 57.3631 126.202 57.9462 125.766 58.9014Z" fill="#DAC6B3"/>
<path d="M158.423 58.9013C157.737 60.3618 156.887 62.0723 155.857 64.0383C154.833 66.0043 153.694 67.9036 152.452 69.7419C151.209 71.5801 149.885 73.1518 148.485 74.4513C147.085 75.7508 145.701 76.4617 144.333 76.5894C143.587 76.6505 142.781 76.5117 141.909 76.1618C141.037 75.8119 140.323 75.1788 139.762 74.2625C139.201 73.3461 138.874 72.0744 138.782 70.4583C138.689 68.8422 138.983 66.7985 139.67 64.3216C138.923 65.5933 137.959 67.065 136.777 68.7422C135.594 70.4249 134.319 71.93 132.952 73.2573C131.148 75.0344 129.481 76.0785 127.961 76.3951C126.435 76.7116 125.144 76.4728 124.087 75.6842C123.03 74.89 122.267 73.6405 121.799 71.93C121.33 70.2195 121.254 68.2035 121.565 65.8932C121.875 63.5774 122.638 61.0449 123.847 58.2848C125.062 55.5247 126.85 52.7201 129.214 49.8711C130.582 48.1606 132.249 46.7 134.205 45.4949C136.166 44.2898 138.155 43.4345 140.176 42.9291C142.198 42.4238 144.154 42.3571 146.055 42.7403C147.951 43.1235 149.553 44.0399 150.861 45.5004C151.542 46.2002 151.749 46.8666 151.465 47.4997C151.188 48.1328 150.637 48.3883 149.831 48.2606C149.33 46.489 148.322 45.406 146.796 45.0284C145.271 44.6452 143.642 44.934 141.898 45.8836C139.784 47.0888 137.605 48.9437 135.365 51.4483C133.126 53.953 131.17 56.6298 129.487 59.4844C129.301 59.8009 129.018 60.3063 128.647 61.0061C128.272 61.7058 127.885 62.5111 127.482 63.433C127.078 64.3549 126.702 65.3045 126.359 66.2875C126.016 67.2705 125.782 68.2035 125.662 69.0921C125.411 70.7415 125.52 71.9466 125.989 72.7075C126.457 73.4683 127.111 73.8515 127.95 73.8515C128.789 73.8515 129.77 73.485 130.887 72.7575C132.009 72.0299 133.126 70.997 134.248 69.6697C135.867 67.6426 137.343 65.4989 138.678 63.2497C140.013 61.0005 141.304 58.7013 142.552 56.3577C143.609 54.3307 144.557 52.7756 145.396 51.6982C146.235 50.6209 147.401 50.1432 148.894 50.271C149.515 50.3376 150.152 50.4487 150.806 50.6042C151.46 50.7652 152.125 50.7819 152.811 50.6486C152.315 51.1596 151.645 52.0926 150.806 53.4532C149.967 54.8194 149.095 56.3688 148.196 58.1126C147.292 59.8565 146.469 61.6503 145.723 63.4885C144.976 65.3268 144.448 66.9762 144.137 68.4312C143.391 72.2354 143.701 74.1347 145.069 74.1347C146.061 74.2014 147.15 73.596 148.333 72.3298C149.515 71.0636 150.681 69.5419 151.83 67.7648C152.98 65.9876 154.021 64.1994 154.958 62.3889C155.89 60.584 156.603 59.1734 157.105 58.1571C157.54 57.3351 157.976 57.013 158.412 57.2074C158.859 57.3796 158.859 57.946 158.423 58.9013Z" fill="#DAC6B3"/>
<path d="M181.372 29.5119C179.193 34.4546 176.616 39.3862 173.63 44.3011C170.644 49.2161 166.852 53.7978 162.248 58.0407C161.998 58.8682 161.687 59.8179 161.317 60.8953C160.941 61.9727 160.603 63.1167 160.292 64.3163C159.606 67.1708 159.486 69.42 159.916 71.0694C160.352 72.7189 161.115 73.7796 162.205 74.2572C163.294 74.7348 164.537 74.6404 165.937 73.974C167.337 73.3075 168.656 72.0858 169.903 70.3142C170.65 69.1701 171.38 68.0316 172.093 66.8876C172.807 65.7491 173.461 64.6384 174.055 63.561C174.643 62.4836 175.177 61.4839 175.64 60.5676C176.109 59.6513 176.496 58.8738 176.806 58.2351C177.242 57.4132 177.694 57.0466 178.158 57.141C178.626 57.2354 178.637 57.7575 178.201 58.7127C177.64 59.9789 176.894 61.6283 175.962 63.6554C175.03 65.6825 173.891 67.6484 172.557 69.5533C171.216 71.4582 169.647 73.1021 167.844 74.496C166.04 75.89 163.954 76.5897 161.594 76.5897C159.851 76.5897 158.5 76.2565 157.535 75.5901C156.571 74.9236 155.884 74.0517 155.481 72.9743C155.078 71.8969 154.887 70.6918 154.92 69.3589C154.953 68.0261 155.089 66.6654 155.34 65.2715C155.59 63.8775 155.901 62.528 156.271 61.2285C156.647 59.9289 156.958 58.8016 157.203 57.8519C157.949 55.1917 158.848 52.3705 159.911 49.3882C160.968 46.4115 162.117 43.4459 163.365 40.4969C164.607 37.548 165.915 34.6823 167.283 31.8888C168.65 29.1009 170.018 26.5629 171.385 24.2804C173.063 21.4259 174.839 19.3821 176.703 18.1437C178.566 16.9052 180.124 16.4943 181.367 16.9052C182.609 17.3162 183.339 18.5713 183.557 20.6595C183.78 22.7643 183.05 25.7077 181.372 29.5119ZM179.972 28.0902C180.408 27.0128 180.778 25.841 181.089 24.5692C181.399 23.303 181.508 22.3033 181.416 21.5758C181.323 20.8483 180.996 20.5762 180.435 20.765C179.874 20.9538 178.975 21.9701 177.727 23.8084C176.605 25.4578 175.33 27.6459 173.902 30.3672C172.469 33.094 171.069 35.9652 169.702 38.9752C168.334 41.9853 167.059 44.9342 165.877 47.8221C164.695 50.71 163.73 53.098 162.984 55.0029C164.662 53.2924 166.313 51.3431 167.931 49.155C169.549 46.9669 171.102 44.6843 172.595 42.3074C174.088 39.9304 175.455 37.5202 176.703 35.0822C177.951 32.6386 179.04 30.3061 179.972 28.0902Z" fill="#DAC6B3"/>
<path d="M178.108 68.3149C177.673 69.8977 177.564 71.2639 177.781 72.4024C177.999 73.5408 178.762 74.1795 180.064 74.3017C180.745 74.4294 181.492 74.285 182.304 73.8741C183.11 73.4631 183.764 73.0021 184.265 72.4968C185.818 70.914 187.343 68.787 188.836 66.1268C190.329 63.4611 191.729 60.8009 193.037 58.1407C193.413 57.2522 193.816 56.9356 194.252 57.1911C194.688 57.4465 194.688 58.0463 194.252 58.996C193.631 60.3288 192.852 61.9783 191.92 63.9387C190.988 65.9047 189.882 67.8206 188.607 69.6922C187.333 71.5638 185.949 73.1465 184.456 74.4461C182.963 75.7456 181.345 76.3954 179.607 76.3954C177.863 76.3954 176.528 75.9844 175.597 75.1569C174.665 74.335 174.038 73.302 173.728 72.0636C173.417 70.8251 173.352 69.4978 173.543 68.0706C173.728 66.6433 174.071 65.2993 174.567 64.0275L180.538 48.5275C180.914 47.6389 180.898 46.817 180.489 46.0561C180.086 45.2953 179.792 44.7899 179.601 44.5344L184.734 44.44C186.226 44.44 187.049 44.7121 187.207 45.2453C187.36 45.784 187.191 46.6226 186.695 47.7666L179.231 65.5492C179.105 65.9935 178.953 66.3712 178.762 66.6877C178.637 67.0043 178.512 67.3208 178.386 67.6374C178.261 67.965 178.168 68.1872 178.108 68.3149ZM191.261 36.6483C191.076 37.7257 190.547 38.6476 189.675 39.4085C188.804 40.1693 187.839 40.5525 186.782 40.5525C185.725 40.5525 184.886 40.1693 184.265 39.4085C183.644 38.6476 183.393 37.7313 183.519 36.6483C183.704 35.5709 184.232 34.649 185.104 33.8882C185.976 33.1273 186.94 32.7441 187.997 32.7441C189.054 32.7441 189.91 33.1273 190.563 33.8882C191.212 34.649 191.446 35.5709 191.261 36.6483Z" fill="#DAC6B3"/>
<path d="M225.689 58.9014C225.003 60.362 224.153 62.1059 223.123 64.1329C222.099 66.16 220.933 68.1148 219.625 69.9809C218.318 71.8524 216.89 73.4519 215.332 74.7847C213.779 76.1176 212.095 76.784 210.292 76.784C209.48 76.784 208.641 76.6229 207.775 76.3064C206.903 75.9898 206.173 75.4012 205.585 74.5459C204.991 73.6907 204.637 72.5466 204.511 71.1249C204.386 69.6976 204.664 67.876 205.35 65.6546C205.726 64.3884 206.347 62.9445 207.219 61.3284C208.091 59.7123 209.181 57.824 210.483 55.6692C211.044 54.7196 211.354 53.8977 211.414 53.1979C211.474 52.4981 211.24 52.0872 210.717 51.9594C210.189 51.8317 209.366 52.0872 208.243 52.7203C207.127 53.3534 205.661 54.5252 203.857 56.2413C202.239 57.7019 200.327 59.89 198.12 62.8056C195.914 65.7212 193.5 69.8142 190.89 75.0735C190.514 75.7732 190.078 76.1842 189.583 76.312C189.087 76.4397 188.34 76.5008 187.343 76.5008C186.657 76.5619 186.085 76.5952 185.616 76.5952C185.148 76.5952 184.668 76.7507 184.172 77.0728C186.412 72.5077 188.542 68.0093 190.563 63.5665C192.585 59.1291 194.748 54.7529 197.047 50.4433C198.229 48.1608 199.254 46.578 200.125 45.6894C200.997 44.8009 202.179 44.3899 203.672 44.451C204.293 44.5176 204.931 44.6287 205.585 44.7842C206.238 44.9453 206.903 44.9619 207.59 44.8342C206.903 45.2174 206.08 46.0393 205.116 47.3055C204.152 48.5773 203.155 50.0657 202.13 51.7762C201.106 53.4867 200.076 55.3138 199.052 57.2465C198.028 59.1791 197.107 61.0007 196.301 62.7168C197.232 61.5116 198.398 60.101 199.798 58.4849C201.199 56.8688 202.61 55.4249 204.043 54.1587C205.165 53.1479 206.549 52.0539 208.194 50.8765C209.84 49.7047 211.507 48.6606 213.185 47.7387C214.863 46.8224 216.432 46.106 217.898 45.6006C219.358 45.0952 220.497 44.9675 221.303 45.2174C219.44 48.6384 217.724 51.9095 216.171 55.0139C215.484 56.3468 214.82 57.7074 214.166 59.1014C213.512 60.4953 212.907 61.8448 212.346 63.1444C211.785 64.4439 211.305 65.6657 210.902 66.8042C210.499 67.9482 210.232 68.9312 210.107 69.7532C209.731 71.7191 209.731 73.002 210.107 73.6018C210.483 74.2071 210.979 74.507 211.6 74.507C212.782 74.507 214.024 73.8406 215.332 72.5077C216.639 71.1749 217.882 69.6088 219.064 67.7983C220.246 65.9934 221.303 64.1718 222.235 62.328C223.167 60.4898 223.88 59.0625 224.382 58.0462C224.758 57.2243 225.177 56.9188 225.64 57.141C226.109 57.3631 226.12 57.9462 225.689 58.9014Z" fill="#DAC6B3"/>
<path d="M89.8068 7.03657C89.6815 5.58153 89.104 4.232 88.0797 2.99355C87.0554 1.7551 85.6987 0.888742 84.0206 0.377812C82.3425 -0.127565 80.4138 -0.127565 78.2344 0.377812C76.055 0.883189 73.7395 2.17162 71.2822 4.22645C68.825 6.28683 66.3024 9.26911 63.7253 13.1677C61.1427 17.0664 58.6419 22.1257 56.2174 28.3346C54.9751 31.6945 53.7928 34.7712 52.6705 37.5591C51.7388 39.9694 50.8507 42.2686 50.0116 44.4511C49.1726 46.6392 48.595 48.0498 48.2845 48.683C43.3046 49.3161 39.2946 48.9995 36.2489 47.7333C33.2033 46.4671 30.9749 44.7066 29.5801 42.4574C28.1799 40.2082 27.526 37.6702 27.6187 34.849C27.7113 32.0277 28.425 29.3176 29.7653 26.7185C29.9669 26.3297 30.2012 25.9688 30.4246 25.5967C28.9644 25.1579 27.8911 24.4526 27.2318 23.4696C25.9732 24.8358 24.9925 26.2687 24.306 27.7681C23.0638 30.4949 22.7042 33.2662 23.2327 36.0874C23.7612 38.9086 25.0361 41.4633 27.0575 43.7403C29.0788 46.0228 31.7813 47.8444 35.1756 49.2105C38.5645 50.5767 42.4983 51.1932 46.9769 51.0654C45.2988 54.6142 43.6969 57.8519 42.1714 60.7676C40.6458 63.6832 38.9841 66.5711 37.1806 69.4201C35.5025 69.1035 33.6337 68.8814 31.5851 68.7536C29.5311 68.6259 27.4661 68.6092 25.3794 68.7037C23.2926 68.7981 21.2604 68.9869 19.2663 69.2757C17.2776 69.5589 15.4415 69.9588 13.7634 70.4641C9.59533 71.7304 6.4407 73.3354 4.29403 75.268C2.14735 77.2006 0.812492 79.15 0.283996 81.1159C-0.2445 83.0819 -0.0429084 84.9535 0.88877 86.7251C1.82045 88.4967 3.26973 89.9128 5.2257 90.9569C7.18713 92.001 9.56264 92.5119 12.3631 92.4786C15.1636 92.4453 18.1766 91.6344 21.4129 90.0517C24.4586 88.5911 27.368 86.514 30.1358 83.8205C32.9036 81.127 35.5025 78.0337 37.9271 74.5516C40.9128 75.1236 43.9149 75.7567 46.9278 76.4509C49.9463 77.1507 52.9156 78.0059 55.836 79.0167C58.7563 80.033 61.5732 81.2492 64.281 82.6765C66.9889 84.1038 69.457 85.8309 71.6963 87.858C73.2491 89.2519 74.4477 90.8514 75.2868 92.6618C76.1259 94.4668 76.6707 96.2439 76.9213 97.9877C77.1665 99.7316 77.2155 101.364 77.063 102.886C76.905 104.408 76.6435 105.58 76.2675 106.407C76.0823 106.79 75.848 107.262 75.5701 107.834C75.2923 108.406 75.1342 108.878 75.1016 109.262C75.0689 109.645 75.2105 109.878 75.5211 109.972C75.8316 110.067 76.4855 109.828 77.4825 109.262C78.3543 108.817 79.1279 107.962 79.8144 106.696C80.3756 105.679 80.6698 104.286 80.7025 102.508C80.7352 100.731 80.4247 98.7986 79.7709 96.7104C79.117 94.6167 78.1036 92.4952 76.7415 90.3404C75.374 88.1857 73.5706 86.2197 71.3313 84.4425C69.1519 82.732 66.76 81.1326 64.1448 79.6387C61.535 78.1503 58.8707 76.8175 56.1683 75.6456C53.4605 74.4738 50.7853 73.4298 48.1428 72.5079C45.5004 71.5915 43.0268 70.8418 40.7275 70.2753C41.0381 69.7033 41.365 69.1646 41.7083 68.6592C42.0515 68.1538 42.3784 67.6152 42.689 67.0431C44.3671 63.9998 45.8164 61.2119 47.0259 58.6739C48.2409 56.1414 49.5267 53.4757 50.8997 50.6878C54.196 50.1158 57.4923 49.0884 60.7886 47.5944C64.0849 46.1061 67.2232 44.2845 70.2143 42.1242C73.2001 39.9694 75.9515 37.5258 78.4687 34.8045C80.9858 32.0777 83.1325 29.1954 84.9087 26.152C86.6794 23.1087 88.0034 19.9542 88.8751 16.6887C89.7414 13.4232 90.052 10.2077 89.8068 7.03657ZM19.9255 87.397C17.0651 88.791 14.4335 89.5685 12.0417 89.724C9.64981 89.8795 7.63935 89.6462 6.02662 89.0131C4.40844 88.38 3.25883 87.447 2.57233 86.2086C1.88583 84.9701 1.8259 83.6428 2.38708 82.2155C2.94827 80.7883 4.23409 79.361 6.2609 77.9337C8.28226 76.5065 11.159 75.318 14.8912 74.3683C17.9368 73.5464 21.1569 73.1021 24.5458 73.0355C27.9347 72.9744 31.1819 73.2909 34.293 73.9851C29.8798 80.3884 25.0906 84.859 19.9255 87.397ZM83.0889 22.109C81.1602 26.3908 78.6103 30.2895 75.4394 33.8049C72.2684 37.3259 68.6452 40.3526 64.5698 42.885C60.4944 45.423 56.3754 47.1668 52.2073 48.1165C53.139 46.0894 54.087 44.0901 55.0514 42.1242C56.0158 40.1582 56.9039 38.3866 57.7102 36.7983C58.6419 34.96 59.5409 33.2162 60.4181 31.5668C64.0249 24.3416 67.3812 18.8102 70.4922 14.9727C73.6032 11.1351 76.2893 8.52493 78.5613 7.12543C80.8333 5.73147 82.6367 5.32051 83.9716 5.88697C85.3064 6.45899 85.9766 7.53639 85.9766 9.11917C85.982 13.5065 85.0177 17.8328 83.0889 22.109Z" fill="#DAC6B3"/>
<path d="M108.609 91.4065H105.699V90.0015H113.142V91.4065H110.232V98.9427H108.603V91.4065H108.609Z" fill="#343434"/>
<path d="M130.691 97.5544V98.9484H124.115V90.0071H130.517V91.401H125.744V93.728H129.977V95.0942H125.744V97.56H130.691V97.5544Z" fill="#343434"/>
<path d="M147.679 98.9427L145.298 95.5439L142.945 98.9427H141.092L144.35 94.3832L141.267 90.0015H143.108L145.353 93.1837L147.57 90.0015H149.336L146.268 94.3166L149.565 98.9427H147.679Z" fill="#343434"/>
<path d="M161.981 91.4065H159.072V90.0015H166.514V91.4065H163.605V98.9427H161.976V91.4065H161.981Z" fill="#343434"/>
<path d="M177.487 90.0015H179.116V98.9427H177.487V90.0015Z" fill="#343434"/>
<path d="M191.229 90.0015H192.858V97.5377H197.445V98.9427H191.229V90.0015Z" fill="#343434"/>
<path d="M215.054 97.5544V98.9484H208.478V90.0071H214.88V91.401H210.107V93.728H214.341V95.0942H210.107V97.56H215.054V97.5544Z" fill="#343434"/>
<path d="M51.3837 23.1863C51.1113 23.3584 50.7517 23.4251 50.3758 23.4917C50.0761 23.5417 49.771 23.5972 49.4659 23.7083C48.3435 24.1193 47.6952 25.1134 47.0686 26.0741C46.5292 26.9072 46.0171 27.6902 45.2434 28.0401C44.8947 28.1956 44.5242 28.24 44.1537 28.2012C43.4127 28.1234 42.6881 27.7069 42.2086 27.1849C41.7618 26.6906 41.4131 26.0519 41.1571 25.2578C41.0808 25.0245 41.0154 24.7801 40.9555 24.5191C40.901 24.2859 40.8574 24.0471 40.8138 23.7916C40.8084 23.7472 40.8029 23.7027 40.792 23.6583C40.536 21.9312 40.5741 20.3373 40.8738 19.01C41.3532 18.9211 41.8381 18.7489 42.3067 18.4935C42.3121 18.4935 42.9932 18.0492 43.0422 18.0103C43.1239 17.9492 43.2002 17.8881 43.2711 17.8215C43.5653 17.5716 43.8268 17.2939 44.0502 16.9996C44.0883 16.9885 44.6386 16.2054 44.5569 16.1887C44.5787 16.1443 44.6005 16.0943 44.6223 16.0443C44.7476 15.7667 44.8402 15.4834 44.9001 15.2002C45.7773 15.2113 46.7744 15.4668 47.8804 15.9666C49.4768 16.683 50.7844 18.0214 51.5145 19.6375C51.5853 19.793 51.6507 19.9541 51.7107 20.1151C51.7597 20.2484 51.8033 20.3817 51.8469 20.5205C51.8523 20.5483 51.8632 20.5705 51.8687 20.5983C52.152 21.5702 52.1029 22.7253 51.3837 23.1863Z" fill="#595BBC"/>
<path d="M35.8119 27.518C35.4578 27.1848 35.2616 26.6905 35.0546 26.163C34.853 25.6576 34.6514 25.1355 34.2864 24.6857C33.796 24.0804 33.1258 23.7471 32.423 23.5139C31.998 23.3751 31.5567 23.2751 31.1372 23.1807L30.9029 23.1307C29.5244 22.8141 28.7181 22.3199 28.4348 21.609C28.0588 20.6538 28.729 19.5431 29.0341 19.1099C29.4373 18.5379 29.9276 18.0214 30.4943 17.566C30.6414 17.4438 30.7994 17.3327 30.9628 17.2217C31.1317 17.105 31.3061 16.9884 31.4913 16.8829C32.216 16.4497 33.0278 16.0998 33.8941 15.8555C34.7876 15.6056 35.6594 15.5167 36.5474 15.4834C36.5529 15.8444 36.6019 16.1943 36.6891 16.533C36.7163 16.6274 36.7381 16.7163 36.7708 16.8052C36.7926 16.8718 36.8199 16.9329 36.8471 16.994C36.9125 17.1495 36.9833 17.2939 37.065 17.4272C37.0923 17.4771 37.125 17.5271 37.1522 17.5715L37.6153 18.1269C38.5579 18.9766 39.7293 19.0433 39.9037 19.0544C39.6149 20.4872 39.5931 22.1588 39.8764 23.9415C39.9473 24.3803 40.0344 24.7912 40.1379 25.1744C39.713 26.063 39.2008 26.9182 38.4544 27.4514C37.6916 27.9956 36.5039 28.1678 35.8119 27.518Z" fill="#595BBC"/>
<path d="M27.7867 12.8347C27.9284 12.5403 28.2008 12.296 28.4896 12.0349C28.713 11.8295 28.9472 11.6184 29.1488 11.363C29.8898 10.4077 29.928 9.21927 29.9661 8.06412C29.9988 7.06448 30.026 6.12037 30.5055 5.41506C30.7234 5.0985 31.0176 4.8597 31.35 4.69309C32.0201 4.35988 32.8538 4.32656 33.5294 4.51538C33.9489 4.632 34.363 4.82638 34.777 5.10406C35.0059 5.25956 35.2402 5.43727 35.469 5.6372C35.7523 5.88156 36.0302 6.16479 36.3135 6.4869C36.3625 6.54244 36.4116 6.59797 36.4606 6.65906C37.6865 8.103 38.531 9.60802 38.9451 10.9964C38.9124 11.0131 38.8742 11.0353 38.8416 11.0575C38.7053 11.1408 38.5691 11.2297 38.4438 11.3296C38.4057 11.3574 38.373 11.3907 38.3349 11.4185C38.2477 11.4962 38.1605 11.574 38.0788 11.6573C38.0188 11.7184 36.8202 12.8458 36.6132 14.5007C35.627 14.5285 34.6517 14.6229 33.6274 14.9117C32.4233 15.2505 31.3173 15.7725 30.3638 16.4445C29.7809 16.1613 29.236 15.7947 28.7457 15.356C27.9938 14.6729 27.3999 13.6288 27.7867 12.8347Z" fill="#595BBC"/>
<path d="M35.2782 2.37702C35.349 1.57175 35.7358 0.877549 36.297 0.572101C36.3134 0.566548 36.3243 0.555441 36.3406 0.549887C37.0653 0.177796 37.9533 0.416601 38.885 0.666513C39.517 0.83312 40.1763 1.01084 40.841 1.01639C41.6855 1.0275 42.4755 0.760924 43.2329 0.505458C43.9139 0.277761 44.5514 0.0611709 45.2052 0.0445102C46.8615 8.14199e-05 48.4906 1.36627 48.9864 3.22117C49.1389 3.78763 49.1934 4.39297 49.1607 5.02608C48.8447 5.16492 48.5451 5.33153 48.2726 5.48703C47.0685 6.19789 43.7014 8.35824 42.4646 10.8518C42.323 10.7963 40.7702 10.2465 39.833 10.6463C39.3699 9.13574 38.4709 7.53631 37.1851 6.01462C36.6512 5.38707 36.1227 4.88169 35.5833 4.48183C35.3817 3.80429 35.2182 3.08233 35.2782 2.37702Z" fill="#595BBC"/>
<path d="M43.1401 12.3957C43.309 12.5457 43.4506 12.7123 43.576 12.89C43.6359 12.9733 43.6849 13.0621 43.734 13.1455C43.8102 13.2898 43.8756 13.4398 43.9246 13.5953C43.9737 13.7563 44.0118 13.923 44.0282 14.0951C44.0336 14.1562 44.0391 14.2173 44.0391 14.2839C44.0445 14.3728 44.0445 14.4617 44.0391 14.5505C44.0336 14.6283 44.0227 14.706 44.0118 14.7782C43.9955 14.9115 43.9628 15.0392 43.9301 15.1725C43.9192 15.2169 43.9029 15.2614 43.892 15.3058C43.8484 15.4446 43.7939 15.5779 43.7285 15.7112C43.6577 15.8612 43.5705 16.0111 43.4724 16.1611C43.467 16.1666 43.467 16.1722 43.4615 16.1777C43.4452 16.2055 43.4234 16.2277 43.407 16.2555C43.309 16.3999 43.1946 16.5387 43.0747 16.672C42.9548 16.8053 42.8241 16.933 42.6824 17.0552C42.617 17.1163 42.5462 17.1718 42.4754 17.2273C42.4318 17.2607 42.3827 17.2995 42.3337 17.3329C42.3119 17.3495 42.2847 17.3662 42.2629 17.3828C42.0286 17.5439 41.7889 17.6827 41.5437 17.7938C41.4347 17.8438 41.3258 17.8827 41.2168 17.9215C41.0315 17.9882 40.8409 18.0326 40.6556 18.0604C40.4813 18.0881 40.3124 18.0993 40.1435 18.0937C40.138 18.0937 40.138 18.0937 40.1326 18.0937C40.1108 18.0937 40.0835 18.0937 40.0617 18.0937C39.6803 18.077 39.3589 18.016 39.081 17.9215C38.9557 17.8771 38.8413 17.8271 38.7378 17.7716C38.4109 17.5994 38.1711 17.3717 37.9968 17.1274C37.9641 17.0829 37.9368 17.0441 37.9096 16.9996C37.817 16.8553 37.7516 16.7053 37.6971 16.5665C37.6862 16.5442 37.6808 16.5165 37.6699 16.4943C37.6208 16.361 37.5882 16.2221 37.5609 16.0777C37.5228 15.8834 37.5064 15.689 37.501 15.4835C37.501 15.3225 37.5064 15.1559 37.5228 14.9948C37.5391 14.8337 37.5664 14.6671 37.6045 14.5061C37.6917 14.1284 37.8279 13.7508 38.0077 13.4065C38.0622 13.3065 38.1166 13.2065 38.1766 13.1121C38.2583 12.9844 38.3455 12.8567 38.4381 12.74C38.5198 12.6345 38.607 12.5346 38.6942 12.4401C38.7541 12.3791 38.814 12.318 38.8794 12.2624C38.9067 12.2402 38.9339 12.2125 38.9611 12.1902C38.9938 12.1625 39.0211 12.1403 39.0538 12.1125C39.0919 12.0792 39.1355 12.0514 39.1736 12.0236C39.2663 11.957 39.3643 11.9014 39.4624 11.8515C39.5114 11.8237 39.5659 11.8015 39.615 11.7793C39.7621 11.7126 39.9146 11.6626 40.0672 11.6238C40.1053 11.6127 40.1489 11.6071 40.187 11.596C40.3941 11.5571 40.6011 11.5349 40.8027 11.5349C40.8844 11.5349 40.9662 11.5405 41.0424 11.546C41.2822 11.5627 41.5219 11.6071 41.7507 11.6682C41.876 11.7015 41.9959 11.7459 42.1158 11.7904C42.2193 11.8293 42.3174 11.8737 42.41 11.9237C42.459 11.9514 42.5081 11.9792 42.5571 12.007C42.5898 12.0236 42.617 12.0403 42.6497 12.0625C42.7696 12.1347 42.8895 12.218 42.993 12.3069C43.0475 12.318 43.091 12.3568 43.1401 12.3957Z" fill="#DAC6B3"/>
<path d="M52.5059 19.4545C51.705 17.5219 50.174 15.9113 48.2889 15.0672C47.2264 14.5896 46.3002 14.3452 45.4993 14.2619C45.3304 14.2452 45.1615 14.2341 45.0035 14.2286C44.9926 14.0287 44.9708 13.8343 44.9326 13.6399C44.8999 13.4677 44.8509 13.3011 44.791 13.1401C44.7365 12.9846 44.6657 12.8402 44.5894 12.6958C44.5676 12.6569 43.6032 11.4962 43.3145 11.3074C43.4997 10.9298 43.7503 10.5466 44.05 10.1689C44.2897 9.86901 44.5621 9.56912 44.8564 9.27478C45.946 8.19183 47.3681 7.16442 48.752 6.34804C48.8282 6.30361 48.9045 6.25918 48.9863 6.21475C49.1606 6.11479 49.3458 6.02038 49.5365 5.93152C49.7054 5.85377 49.8798 5.78713 50.0596 5.72604C50.4791 5.59275 50.9204 5.52055 51.3454 5.59275C52.6258 5.80934 53.4594 7.19218 53.7155 8.47506C53.8898 9.33587 53.8898 10.2133 53.8898 11.1408C53.8898 11.7461 53.8898 12.3737 53.9443 12.9901C53.9824 13.4455 54.0478 13.9009 54.1187 14.3508C54.2113 14.9672 54.293 15.5448 54.3093 16.1335C54.3311 16.9221 54.2167 18.0217 53.5466 18.7714C53.2633 19.0991 52.9037 19.3157 52.5059 19.4545Z" fill="#595BBC"/>
<path d="M80.604 89.8629L87.578 87.7359L81.345 91.068C91.223 95.9441 97.8537 83.0542 97.8537 83.0542C82.985 80.3607 80.8928 87.4249 80.604 89.8629Z" fill="#86BC94"/>
<path d="M35.3984 64.2605L29.9555 59.3401L36.0195 62.9832C34.8808 51.8538 20.6387 52.8979 20.6387 52.8979C26.2233 67.2039 33.2191 65.2935 35.3984 64.2605Z" fill="#86BC94"/>
</g>
<defs>
<clipPath id="clip0">
<path d="M0 0H226V110H0V0Z" fill="white"/>
</clipPath>
</defs>
</svg>
